<?xml version="1.0" standalone="no"?>
<!DOCTYPE svg PUBLIC "-//W3C//DTD SVG 20010904//EN"
 "http://www.w3.org/TR/2001/REC-SVG-20010904/DTD/svg10.dtd">
<svg version="1.0" xmlns="http://www.w3.org/2000/svg"
 width="300.000000pt" height="300.000000pt" viewBox="0 0 300.000000 300.000000"
 preserveAspectRatio="xMidYMid meet">
<metadata>
Created by potrace 1.10, written by Peter Selinger 2001-2011
</metadata>
<g transform="translate(0.000000,300.000000) scale(0.100000,-0.100000)"
fill="#000000" stroke="none">
<path d="M1184 2988 c-3 -5 -12 -7 -20 -4 -7 3 -17 0 -21 -7 -5 -7 -21 -19
-38 -27 -16 -8 -43 -25 -58 -37 -29 -23 -57 -30 -57 -14 0 33 -121 -3 -225
-68 -27 -17 -61 -36 -75 -41 -13 -6 -27 -14 -30 -18 -3 -4 -47 -38 -97 -76
-51 -39 -93 -74 -93 -78 0 -5 -5 -6 -10 -3 -6 4 -9 3 -8 -2 2 -5 -25 -38 -59
-73 -69 -72 -138 -161 -178 -230 -6 -10 -16 -24 -22 -31 -11 -15 -81 -152 -93
-184 -47 -121 -41 -102 -79 -247 -21 -80 -28 -228 -10 -228 5 0 9 10 9 23 0
13 7 32 15 43 20 26 19 36 -4 29 -19 -6 -19 -4 0 82 24 111 73 261 109 333 26
52 36 60 132 117 183 108 265 177 256 219 -2 13 -14 7 -57 -27 -30 -24 -49
-45 -42 -47 6 -2 11 -8 11 -14 0 -7 -5 -6 -14 1 -12 10 -36 -5 -126 -78 -61
-50 -114 -91 -116 -91 -18 0 116 195 190 278 145 160 299 276 483 365 58 27
105 48 106 46 1 -2 7 -14 14 -25 9 -16 9 -24 0 -33 -9 -9 -8 -14 3 -21 16 -10
40 5 40 24 0 6 -4 5 -9 -3 -5 -7 -15 -11 -22 -9 -8 3 11 21 45 44 120 80 137
87 241 100 153 20 155 20 155 -18 0 -53 11 -62 51 -44 19 8 51 30 71 47 l37
32 126 -16 c70 -8 131 -19 137 -25 5 -5 7 -20 3 -33 -7 -21 -8 -21 -22 12 -18
40 -30 22 -14 -21 11 -34 6 -37 -20 -14 -26 23 -42 13 -78 -50 -33 -57 -56
-72 -97 -62 -21 6 -24 3 -24 -24 0 -55 49 -53 124 5 26 19 48 35 50 35 9 0
-33 -136 -62 -205 -17 -38 -33 -87 -37 -108 -10 -53 -73 -117 -115 -117 -16 0
-30 -4 -30 -9 0 -8 -37 -24 -52 -22 -11 2 -10 -37 2 -60 16 -28 31 -24 75 21
27 28 48 40 67 40 15 0 28 -4 28 -9 0 -27 -51 -204 -69 -239 -57 -112 -190
-162 -324 -123 l-48 14 32 33 c18 18 44 36 59 39 35 8 99 89 100 127 0 16 -3
16 -34 -3 -19 -11 -37 -26 -40 -34 -3 -8 -12 -15 -20 -15 -8 0 -41 -30 -75
-66 l-60 -66 -44 60 c-63 86 -74 115 -52 148 9 14 32 32 50 40 19 7 45 28 58
46 32 43 60 98 53 106 -3 3 -28 -14 -55 -36 -27 -23 -53 -42 -58 -42 -13 0
-48 -42 -67 -77 -9 -18 -20 -33 -24 -33 -4 0 -16 19 -28 43 -12 23 -26 41 -33
39 -7 -1 -10 2 -6 8 7 12 -44 105 -52 96 -4 -3 1 -14 9 -23 9 -10 21 -29 27
-43 10 -21 8 -20 -11 5 -12 17 -40 49 -62 73 -44 48 -45 68 -1 22 l28 -29 29
24 c16 14 35 25 42 25 19 0 62 51 80 94 28 69 18 74 -40 19 -21 -21 -43 -38
-49 -38 -14 -1 -60 -47 -68 -67 -10 -27 -20 -22 -63 30 -62 74 -86 112 -81
126 3 7 20 20 39 29 39 19 69 49 92 95 30 59 16 68 -33 23 -24 -23 -49 -41
-55 -41 -6 0 -29 -15 -50 -33 -36 -31 -42 -33 -77 -23 -32 8 -41 7 -59 -9 -11
-10 -18 -20 -15 -23 3 -3 1 -10 -3 -16 -4 -6 -5 -90 -1 -186 7 -193 19 -251
74 -369 19 -40 35 -78 35 -83 0 -18 -61 -81 -107 -111 -24 -16 -56 -45 -70
-64 -21 -27 -31 -33 -50 -28 -20 5 -23 2 -23 -26 0 -24 3 -30 16 -25 9 3 22 6
30 6 7 0 25 18 39 40 14 22 31 40 38 40 6 0 46 25 87 55 41 30 78 55 81 55 16
0 95 -119 130 -196 28 -60 39 -98 39 -132 0 -26 9 -67 20 -91 11 -24 19 -45
18 -45 -125 -58 -197 -103 -228 -144 -25 -33 -45 -48 -68 -53 -40 -8 -46 -14
-39 -34 17 -42 99 -3 202 95 42 40 125 100 139 100 2 0 6 -22 8 -48 3 -27 14
-62 26 -78 11 -16 22 -45 24 -64 3 -34 2 -35 -45 -44 -37 -7 -49 -14 -53 -32
-3 -13 -13 -29 -21 -36 -8 -7 -19 -22 -24 -34 -6 -18 -17 -23 -50 -26 -49 -3
-57 -16 -32 -47 18 -21 19 -21 49 -4 18 10 66 44 107 76 42 31 80 57 86 57 5
0 15 -16 21 -36 10 -29 9 -43 -3 -77 -9 -23 -19 -68 -23 -100 -5 -42 -12 -61
-27 -72 -31 -22 -50 -19 -44 5 3 13 0 20 -9 20 -17 0 -19 -49 -2 -84 9 -20 14
-23 25 -15 10 9 13 8 13 -2 1 -9 6 -7 16 6 15 19 16 18 9 -13 -14 -67 2 -117
56 -176 39 -42 57 -75 85 -150 l35 -96 -30 -37 c-20 -25 -27 -41 -21 -47 13
-13 13 -26 0 -26 -5 0 -10 7 -10 15 0 20 1 20 -75 -16 -68 -33 -80 -53 -49
-83 8 -9 17 -16 20 -16 2 0 23 17 47 39 23 21 53 41 67 44 14 4 42 22 62 41
40 37 43 36 73 -24 10 -19 30 -51 46 -71 l28 -35 -45 -48 c-39 -40 -48 -45
-61 -34 -12 10 -17 9 -28 -5 -11 -15 -17 -15 -86 3 -41 11 -101 30 -134 42
-71 25 -251 113 -259 127 -4 5 3 26 15 45 26 44 15 46 -26 6 l-31 -30 -82 60
c-76 57 -97 80 -72 80 14 0 62 76 58 93 -2 11 -18 5 -63 -25 l-59 -40 -67 74
-67 73 30 30 c31 30 63 93 54 102 -3 3 -28 -15 -57 -41 -28 -25 -55 -43 -60
-41 -4 3 -31 40 -59 82 l-50 77 31 54 c30 54 34 75 8 50 -8 -7 -26 -21 -40
-30 l-26 -16 -22 46 c-47 97 -72 174 -60 188 9 11 8 14 -4 14 -11 0 -21 24
-36 88 -31 137 -36 182 -19 182 8 0 23 9 34 21 10 12 40 32 65 44 46 24 79 61
79 90 0 22 -12 19 -72 -20 -29 -20 -70 -43 -90 -53 -61 -28 -48 -41 17 -17 11
4 3 -7 -18 -25 -38 -32 -38 -33 -36 -104 2 -69 20 -160 39 -201 5 -11 12 -33
14 -48 3 -16 14 -47 25 -70 10 -23 31 -68 45 -99 20 -45 29 -56 42 -51 14 5
16 2 11 -17 -7 -26 23 -95 55 -130 10 -10 18 -23 18 -27 0 -16 58 -63 62 -51
3 8 7 6 11 -5 4 -10 2 -17 -5 -17 -12 0 50 -80 96 -124 17 -16 30 -33 29 -36
-3 -9 26 -6 50 4 10 5 20 6 23 4 8 -9 -8 -38 -17 -32 -5 3 -9 3 -9 0 0 -11 96
-102 120 -114 34 -16 64 -35 71 -45 3 -5 8 -8 10 -6 2 1 29 -14 59 -33 30 -19
68 -38 83 -42 15 -4 25 -11 22 -16 -3 -6 1 -10 10 -10 8 0 31 -7 51 -15 19 -8
35 -14 37 -13 1 0 20 -7 42 -17 71 -30 187 -55 206 -44 24 12 57 11 61 -2 2
-7 18 1 37 17 31 26 34 26 46 11 18 -25 25 -21 25 15 l0 32 21 -23 c35 -38 77
-50 150 -44 48 4 69 2 80 -8 30 -30 191 -19 309 21 156 53 347 138 375 166 18
19 83 64 92 64 15 0 103 86 96 93 -3 4 -25 -8 -47 -26 -167 -136 -375 -239
-586 -290 -159 -39 -190 -42 -190 -22 0 12 6 16 20 12 11 -3 23 -1 26 4 3 6
34 23 69 40 74 35 111 74 127 134 9 33 15 41 29 38 28 -8 199 141 199 172 0
20 -13 19 -44 -6 -14 -11 -30 -17 -36 -14 -5 3 -10 -1 -10 -9 0 -10 -9 -16
-21 -16 -14 0 -19 -5 -16 -14 3 -8 -10 -27 -33 -45 l-39 -32 -7 27 c-5 17 1
54 15 98 12 39 29 113 38 163 13 73 19 90 29 82 9 -8 15 -5 23 10 16 29 14 48
-3 26 -13 -18 -14 -18 -20 2 -4 12 -3 59 3 105 5 46 8 104 8 130 -2 41 2 52
30 79 17 18 53 44 79 58 37 20 56 40 80 83 18 32 29 60 25 62 -4 3 -27 -13
-52 -34 -24 -22 -49 -39 -54 -40 -6 0 -24 -15 -41 -34 -17 -18 -42 -35 -56
-38 -29 -5 -27 -11 -53 136 -8 44 -13 82 -10 84 2 3 12 -1 20 -8 20 -16 27 -8
50 52 10 26 24 53 31 59 14 12 10 29 -7 29 -6 0 -22 -13 -37 -30 -20 -21 -33
-28 -49 -24 -21 6 -22 10 -19 93 3 74 8 94 36 146 63 116 84 139 141 155 27 7
41 19 53 44 32 69 11 75 -59 17 -26 -22 -63 -42 -81 -46 -37 -6 -64 -44 -64
-89 0 -20 4 -24 18 -19 16 6 16 5 1 -13 -9 -10 -21 -35 -28 -54 -6 -19 -24
-45 -39 -58 -15 -13 -22 -21 -15 -18 20 11 31 -46 21 -108 -9 -49 -13 -57 -29
-53 -16 4 -19 -1 -19 -31 -1 -30 -2 -34 -11 -19 -6 9 -9 27 -7 39 2 12 -2 23
-7 25 -16 5 -16 -37 1 -68 7 -15 14 -39 14 -52 0 -14 14 -58 31 -98 35 -82 46
-134 31 -143 -7 -4 -5 -22 4 -53 18 -58 18 -104 0 -172 -13 -50 -12 -55 6 -73
19 -19 20 -29 14 -110 -4 -50 -14 -109 -22 -132 -9 -22 -19 -54 -23 -70 -3
-16 -13 -31 -21 -34 -12 -3 -12 -1 -2 6 9 6 6 12 -13 20 -32 15 -72 15 -80 2
-3 -5 -15 -10 -26 -10 -15 0 -19 5 -15 18 3 9 10 39 16 67 6 27 18 58 27 67 9
10 13 18 8 18 -4 0 -14 -8 -21 -17 -13 -17 -14 -17 -8 -1 4 13 1 18 -10 18
-13 0 -15 -4 -7 -17 6 -11 5 -26 -1 -42 -15 -41 -26 -111 -17 -111 5 0 6 -7 3
-15 -4 -8 -17 -15 -29 -15 -26 0 -46 -21 -27 -28 7 -2 9 -9 6 -14 -4 -7 -2 -8
4 -4 7 4 12 1 12 -6 0 -25 -17 -39 -48 -40 -37 -1 -38 -4 -15 -30 9 -10 18
-28 20 -39 5 -31 -19 -18 -30 17 -5 16 -11 30 -12 32 -5 6 -55 -21 -55 -30 0
-13 20 -9 20 5 0 6 14 -3 30 -20 24 -27 35 -32 58 -27 19 4 29 12 28 22 -1 12
7 17 27 18 35 1 43 10 28 28 -14 16 -45 10 -34 -7 4 -6 0 -8 -10 -4 -9 3 -18
1 -20 -6 -3 -9 -8 -8 -20 2 -25 20 -21 29 16 33 24 2 31 7 29 21 -2 12 4 17
20 17 19 1 17 4 -14 21 -46 24 -49 33 -8 24 17 -4 30 -3 30 2 0 4 11 15 23 24
27 20 72 35 64 22 -4 -6 4 -8 20 -5 17 3 24 1 19 -6 -3 -6 -2 -13 4 -17 6 -4
8 -11 4 -16 -3 -5 0 -17 8 -26 11 -14 10 -15 -12 -8 -14 5 -34 10 -45 11 -11
2 -33 6 -50 10 -16 3 -25 2 -20 -3 6 -4 10 -15 10 -23 -1 -8 3 -21 8 -28 7 -9
5 -11 -9 -6 -10 4 4 -14 31 -39 l50 -45 9 29 c12 39 -5 59 -34 41 -26 -16 -27
-16 -32 13 -6 28 -4 29 24 14 15 -8 19 -8 14 0 -9 14 7 14 21 0 9 -9 16 -8 28
5 9 9 18 16 20 16 1 0 -6 -31 -17 -69 -15 -50 -25 -68 -34 -64 -10 3 -12 0 -8
-10 8 -23 -66 -73 -142 -97 -35 -10 -107 -22 -161 -25 -111 -7 -130 -1 -172
54 l-26 34 25 -7 c24 -7 24 -6 6 8 -11 9 -25 16 -32 16 -17 0 -71 64 -88 103
-7 18 -26 46 -41 63 -15 16 -34 38 -41 50 -13 19 -49 117 -59 158 -2 10 -9 24
-16 32 -6 8 -8 14 -3 14 13 0 41 -20 29 -20 -5 0 7 -12 28 -27 20 -14 37 -32
37 -39 0 -7 5 -16 12 -20 8 -5 9 4 5 33 -5 30 -1 54 14 91 26 63 20 121 -19
180 -38 57 -142 177 -150 175 -4 -2 -7 -22 -7 -45 -1 -24 -4 -53 -9 -65 -4
-14 -3 -23 3 -23 5 0 8 -13 6 -30 -2 -16 1 -30 7 -30 5 0 7 -7 4 -16 -15 -39
-18 -64 -7 -64 6 0 11 15 11 33 0 25 3 29 11 17 8 -11 9 -9 3 10 l-7 25 24
-20 24 -20 -17 21 c-24 27 -23 42 1 20 10 -9 24 -16 31 -14 6 2 21 -9 32 -24
19 -24 19 -28 5 -57 -14 -28 -11 -41 7 -24 10 10 56 15 56 6 0 -4 -5 -15 -10
-23 -9 -13 -11 -13 -20 0 -5 8 -10 10 -10 4 0 -5 6 -16 13 -23 10 -10 3 -11
-33 -6 -32 4 -51 2 -65 -9 -18 -13 -22 -13 -37 1 -15 14 -15 16 3 34 10 10 24
19 29 19 6 0 10 11 10 24 0 36 18 41 31 9 7 -16 13 -23 16 -15 3 7 -3 24 -12
38 -12 19 -20 23 -28 15 -6 -6 -19 -11 -28 -11 -13 0 -17 -6 -14 -22 2 -13 -5
-34 -16 -47 -19 -23 -20 -23 -34 -5 -29 39 -30 89 -7 294 4 39 16 81 31 105
54 92 78 182 82 303 1 40 6 72 10 72 4 0 11 10 15 23 4 12 18 33 33 46 16 15
21 26 14 28 -25 9 49 93 102 118 26 12 27 14 8 15 -12 0 -28 -6 -35 -13 -7 -7
-25 -20 -40 -30 -34 -21 -60 -69 -52 -94 4 -13 3 -14 -3 -5 -7 9 -20 -8 -47
-63 -21 -41 -42 -72 -47 -69 -5 3 -2 15 6 27 8 12 15 28 15 37 1 8 14 31 30
50 36 41 38 55 8 40 -22 -11 -22 -10 -4 4 11 9 23 16 27 16 4 0 9 7 13 15 3 8
2 14 -2 14 -25 -4 -34 3 -29 22 6 21 5 21 -18 -1 l-24 -23 11 31 c7 17 15 29
20 26 4 -3 5 2 1 12 -4 11 2 9 19 -7 13 -13 23 -27 21 -31 -2 -4 1 -9 6 -13 6
-3 17 8 26 26 12 21 22 30 34 26 10 -2 25 0 34 5 13 7 14 13 5 33 -13 29 -25
31 -55 10 -13 -9 -24 -11 -28 -5 -8 13 11 46 33 59 15 9 15 10 0 11 -9 0 -18
5 -20 11 -3 8 -10 9 -23 2 -23 -12 -48 -6 -39 9 3 5 -12 0 -35 -11 -45 -23
-51 -25 -51 -12 0 5 12 12 26 15 15 4 24 9 22 12 -6 6 -110 -21 -137 -36 -12
-6 -21 -17 -21 -24 0 -7 -9 -21 -20 -31 -11 -10 -20 -29 -20 -42 0 -12 -5 -23
-11 -23 -7 0 -9 11 -5 30 4 23 0 36 -16 52 -18 18 -19 22 -5 30 13 7 14 13 5
33 -6 14 -15 25 -20 25 -5 0 -4 -9 2 -21 7 -11 9 -23 6 -27 -10 -9 -18 5 -20
32 0 14 -7 26 -14 26 -7 0 -11 4 -8 9 3 5 -1 15 -10 22 -24 20 -107 146 -141
214 -55 109 -93 256 -93 354 0 73 18 119 62 162 55 53 73 50 21 -3 -23 -24
-47 -56 -52 -71 -16 -42 -13 -168 5 -250 32 -146 155 -355 267 -453 l46 -41
-27 -22 c-15 -12 -21 -19 -14 -16 6 3 12 0 12 -7 0 -7 13 1 28 19 15 17 42 38
60 47 37 19 43 29 10 17 -15 -6 -30 -3 -45 6 -12 8 -28 11 -34 7 -8 -4 -9 -3
-5 4 4 8 0 12 -11 12 -32 0 -60 28 -76 75 -15 43 -15 45 2 35 10 -5 21 -7 24
-4 3 3 20 -2 37 -11 19 -10 43 -14 59 -11 20 5 16 1 -14 -16 -22 -11 -35 -23
-29 -25 14 -5 85 42 97 63 5 8 6 37 3 64 -3 28 -2 50 2 50 4 0 17 -24 30 -52
12 -28 25 -49 28 -46 5 6 -28 74 -67 136 -17 25 -18 32 -6 32 23 0 90 -136 83
-166 -8 -30 -26 -27 -43 7 -12 23 -13 23 -13 -12 0 -28 -6 -41 -25 -53 -14 -9
-28 -17 -32 -17 -13 -1 -33 -21 -33 -31 0 -6 26 -8 60 -6 33 1 60 0 60 -4 0
-4 11 -7 24 -6 15 1 22 7 19 15 -3 8 3 13 15 13 23 0 105 44 97 52 -3 3 18 5
47 5 56 0 134 18 156 36 16 13 84 14 222 4 58 -4 98 -4 90 0 -19 10 -24 34 -9
43 6 4 0 8 -14 8 -23 0 -24 -2 -11 -15 21 -21 12 -26 -22 -13 -31 12 -70 17
-149 19 l-50 2 25 19 c14 11 30 24 35 28 6 4 29 6 53 4 24 -2 42 0 42 6 0 14
-38 22 -44 8 -3 -7 -5 -7 -5 2 -1 7 -6 10 -12 7 -6 -4 -5 2 3 14 7 12 15 21
18 21 3 0 6 8 7 18 4 40 16 82 23 82 3 0 7 16 8 35 1 19 6 44 11 54 6 10 7 21
4 25 -3 3 -2 6 4 6 8 0 8 10 1 33 -19 63 89 373 144 411 61 43 124 -2 158
-112 45 -145 45 -326 -1 -526 -29 -128 -28 -126 -52 -136 -21 -9 -21 -9 2 -9
l25 -1 -22 -21 c-12 -11 -20 -24 -17 -28 2 -5 -2 -14 -10 -21 -12 -10 -15 -10
-15 2 0 8 5 19 12 26 7 7 8 12 2 12 -6 0 -15 -5 -22 -12 -8 -8 -12 -9 -12 -1
0 6 12 16 28 21 24 8 25 11 9 17 -14 6 -26 0 -47 -23 -27 -29 -32 -31 -96 -30
-54 1 -70 -3 -80 -17 -10 -14 -26 -18 -66 -17 -29 1 -66 -2 -83 -8 -24 -8 -17
-9 35 -5 43 3 58 1 45 -5 -11 -5 -40 -9 -65 -10 -42 -2 -43 -3 -15 -10 29 -7
28 -8 -11 -9 -33 -1 -45 -6 -58 -26 -21 -32 1 -35 28 -4 27 32 80 18 136 -37
25 -24 54 -51 65 -59 19 -16 19 -16 -5 -9 -14 4 -28 12 -32 19 -5 7 -16 11
-27 8 -11 -3 -21 2 -24 11 -4 9 -17 16 -29 16 -21 1 -70 28 -55 31 23 4 33 4
37 -1 3 -3 15 -11 28 -18 16 -9 22 -9 22 -1 0 33 -85 53 -112 26 -7 -8 -20
-16 -28 -20 -8 -3 1 -6 20 -7 l35 -2 -39 -10 c-33 -9 -41 -8 -52 6 -11 16 -13
16 -25 -6 -11 -21 -11 -22 4 -9 15 12 17 11 17 -4 0 -13 6 -16 25 -11 68 16
80 18 65 7 -12 -9 -11 -11 9 -11 27 0 25 -8 -5 -13 -10 -2 -27 -7 -37 -12 -9
-4 -28 -4 -41 -1 -14 3 -28 2 -31 -4 -3 -5 3 -10 14 -10 12 0 21 -5 21 -11 0
-6 -9 -9 -20 -6 -11 3 -18 1 -15 -3 3 -5 1 -11 -5 -15 -9 -5 -14 7 -12 26 1 4
-8 9 -18 12 -24 6 -24 8 -5 -31 16 -31 31 -33 63 -9 8 6 17 5 28 -4 13 -10 17
-10 24 1 4 7 15 10 24 7 9 -4 16 -2 16 4 0 7 -13 9 -37 4 -33 -6 -36 -5 -23
10 7 9 22 14 32 12 10 -3 16 -1 12 4 -3 5 2 9 11 9 17 0 50 -27 50 -41 0 -13
10 -18 45 -23 19 -2 49 -7 65 -11 17 -3 3 6 -30 20 -66 28 -89 45 -61 45 10 0
14 5 10 11 -3 6 -14 9 -24 6 -13 -3 -19 2 -23 19 -3 16 0 24 10 24 8 0 11 -5
7 -12 -4 -6 -3 -8 3 -5 6 4 16 0 23 -8 7 -8 22 -15 34 -15 12 0 31 -7 43 -15
12 -9 27 -14 33 -13 14 4 56 -49 47 -58 -4 -4 -15 4 -26 17 -11 15 -30 25 -47
26 l-29 1 26 -11 c33 -16 73 -49 76 -65 4 -15 -2 -15 -29 -1 -11 6 -22 8 -25
5 -3 -3 7 -10 22 -16 15 -6 29 -19 32 -30 3 -11 10 -20 15 -20 5 0 6 5 3 10
-4 6 -2 17 5 25 7 9 8 15 0 20 -5 3 -10 13 -10 21 0 18 35 10 63 -14 25 -22
21 -7 -5 18 -12 11 -30 20 -40 20 -10 0 -18 5 -18 11 0 16 -87 110 -121 132
-15 10 -31 27 -34 37 -3 10 -16 21 -28 23 -17 3 -16 5 7 6 16 0 26 4 23 8 -12
12 126 65 154 59 60 -12 169 -99 169 -135 0 -12 5 -21 10 -21 6 0 10 -11 10
-25 0 -14 -4 -25 -9 -25 -17 0 -21 -33 -9 -66 20 -56 39 -40 50 41 0 6 -2 25
-7 44 -5 26 -4 32 6 26 9 -6 10 -3 4 11 -4 10 -17 56 -28 102 l-20 82 26 28
c30 31 35 57 12 66 -12 4 -10 19 16 88 16 45 35 118 40 161 10 77 12 81 67
143 31 36 101 103 154 149 95 83 137 130 125 141 -3 3 -49 -30 -101 -75 -53
-44 -118 -92 -145 -105 -27 -14 -58 -37 -69 -51 -11 -14 -22 -25 -25 -25 -2 0
-7 24 -11 53 -4 28 -12 76 -18 104 -11 52 -11 53 26 108 20 30 42 55 50 55 7
0 34 16 59 35 l47 36 37 -20 c70 -37 184 -118 269 -192 64 -55 81 -75 73 -85
-6 -7 -81 -69 -167 -138 -87 -69 -174 -147 -196 -176 -32 -41 -44 -50 -65 -48
-18 2 -26 9 -25 21 2 18 -21 24 -31 7 -3 -5 3 -27 15 -49 15 -31 24 -39 38
-34 15 6 15 5 3 -10 -8 -10 -9 -17 -3 -17 6 0 16 17 22 38 11 39 82 108 100
97 6 -3 10 0 10 8 0 11 121 126 282 265 l38 33 32 -37 c18 -20 54 -64 79 -97
l47 -60 -27 -22 c-14 -12 -78 -59 -141 -105 -128 -92 -178 -134 -234 -197 -46
-51 -34 -56 26 -10 24 19 49 32 55 30 6 -2 13 2 15 10 1 8 62 66 133 127 72
62 140 122 153 133 22 20 22 20 37 1 16 -21 105 -189 105 -198 0 -3 -71 -59
-157 -125 -149 -112 -249 -201 -228 -201 6 0 30 16 54 35 34 27 47 32 53 23 7
-10 8 -9 6 3 -3 17 273 252 283 241 4 -4 21 -49 38 -101 45 -134 73 -284 69
-358 -2 -35 0 -63 4 -63 4 0 8 47 8 104 0 105 -11 166 -52 301 -12 39 -23 76
-24 83 -1 8 -10 22 -20 33 -9 10 -14 19 -10 19 4 0 -4 21 -18 46 -14 26 -26
51 -26 56 0 11 -70 130 -81 138 -3 3 -15 20 -26 38 -40 66 -195 233 -249 268
-13 9 -24 23 -24 31 0 8 -5 11 -10 8 -6 -3 -13 1 -16 9 -3 9 -12 16 -20 16 -8
0 -14 4 -14 8 0 5 -16 16 -35 25 -19 9 -35 22 -35 29 0 6 -3 8 -7 5 -3 -4 -21
4 -39 18 -18 14 -37 25 -41 25 -5 0 -19 9 -31 20 -26 25 -32 26 -43 8 -6 -8
-9 -9 -9 -1 0 12 -60 53 -83 57 -6 1 -22 8 -35 15 -28 15 -152 42 -164 35 -4
-3 -21 5 -38 18 -26 19 -46 22 -150 26 -87 3 -124 1 -135 -8 -10 -9 -15 -9
-15 -1 0 6 -9 11 -20 11 -11 0 -20 -7 -20 -15 0 -10 -10 -15 -29 -15 -39 0
-49 17 -14 23 16 2 -41 5 -124 5 -89 0 -155 -4 -159 -10z m303 -44 c-3 -3 -12
-4 -19 -1 -8 3 -5 6 6 6 11 1 17 -2 13 -5z m571 -53 c51 -19 91 -40 89 -46 -2
-5 -14 -15 -26 -21 -39 -20 -121 -103 -121 -124 0 -33 -18 -31 -24 3 -7 39
-70 172 -85 181 -6 4 -11 18 -11 32 0 23 2 24 43 18 23 -4 84 -23 135 -43z
m-160 -61 c19 -33 30 -60 26 -60 -3 0 0 -8 7 -17 10 -12 5 -10 -16 4 -44 32
-83 34 -111 6 -16 -17 -17 -16 -12 9 3 16 0 29 -6 31 -7 3 -7 9 3 20 7 10 9
17 3 17 -5 0 -13 7 -16 16 -5 14 -1 16 24 10 22 -4 32 -1 36 9 11 28 29 15 62
-45z m-128 0 c0 -5 -4 -12 -10 -15 -5 -3 -10 -4 -10 -1 0 2 -3 12 -6 20 -5 12
-2 15 10 10 9 -3 16 -10 16 -14z m-950 -135 c-13 -14 -25 -23 -28 -21 -7 7
-62 -46 -62 -60 0 -8 -11 -16 -24 -20 -13 -3 -36 -19 -52 -35 -15 -16 -31 -29
-35 -29 -10 0 -17 70 -7 76 5 3 6 9 3 14 -10 16 32 31 58 21 27 -11 45 -4 117
47 55 38 61 40 30 7z m-62 -150 c6 -14 16 -25 22 -25 5 0 10 -7 10 -15 0 -8 4
-15 10 -15 5 0 13 -12 16 -27 4 -16 16 -34 26 -41 10 -7 18 -18 18 -24 0 -6
-10 -2 -22 9 -24 20 -61 37 -111 47 -21 5 -33 1 -51 -17 l-23 -24 0 26 c0 28
18 62 56 104 30 33 35 33 49 2z m259 -20 c0 -8 -4 -12 -9 -9 -5 3 -6 10 -3 15
9 13 12 11 12 -6z m-25 -22 c-6 -2 -10 -9 -7 -13 3 -5 1 -11 -4 -14 -7 -5 -8
11 -2 32 1 1 7 2 14 1 9 0 9 -2 -1 -6z m1108 -69 c0 -8 -4 -12 -10 -9 -5 3
-10 10 -10 16 0 5 5 9 10 9 6 0 10 -7 10 -16z m-1327 -8 c38 -16 115 -81 106
-90 -3 -3 -23 5 -43 19 -47 32 -62 32 -32 0 13 -14 33 -25 44 -25 14 0 27 -11
37 -30 9 -16 18 -30 21 -30 2 0 -2 14 -11 30 -24 46 -9 35 21 -15 32 -56 84
-192 84 -222 0 -12 4 -25 10 -28 5 -3 10 -16 10 -28 0 -12 2 -38 5 -57 6 -35
-12 -77 -21 -53 -4 8 -13 9 -29 3 -18 -7 -27 -4 -40 10 -9 10 -14 23 -11 28 3
6 -1 13 -10 16 -8 3 -12 10 -9 16 3 5 4 10 1 10 -2 0 -13 3 -23 7 -16 6 -16 5
-4 -10 20 -25 7 -21 -15 5 -10 12 -13 18 -7 14 9 -5 11 -2 7 8 -8 20 -4 20 32
1 16 -8 40 -15 54 -14 15 0 19 3 10 6 -54 20 -81 37 -77 52 3 16 -36 61 -53
61 -5 0 -17 11 -26 25 -12 19 -14 28 -5 38 6 8 7 17 3 21 -7 8 -8 12 -11 44
-2 16 -2 16 -12 0 -7 -12 -6 -23 3 -37 19 -30 1 -37 -27 -11 -43 40 -28 1 20
-52 25 -28 45 -54 45 -59 0 -5 8 -9 19 -9 10 0 21 -9 24 -20 3 -11 1 -20 -4
-20 -5 0 -9 -7 -9 -16 0 -13 -3 -14 -15 -4 -11 9 -12 17 -4 31 6 13 6 19 -1
19 -5 0 -10 -5 -10 -11 0 -5 -4 -8 -9 -4 -5 3 -12 1 -15 -4 -3 -5 8 -23 26
-40 35 -34 25 -42 -14 -11 -14 10 -33 41 -43 67 -9 26 -27 57 -39 68 -31 28
-57 92 -58 145 -1 54 9 80 31 80 14 0 14 2 1 10 -11 7 -18 3 -27 -13 -12 -21
-12 -20 -13 14 0 40 29 79 61 79 11 0 34 -6 52 -14z m1275 -32 c-10 -10 -28 6
-28 24 0 15 1 15 17 -1 9 -9 14 -19 11 -23z m-414 -25 c-3 -5 -10 -7 -15 -3
-5 3 -7 10 -3 15 3 5 10 7 15 3 5 -3 7 -10 3 -15z m406 7 c0 -3 -4 -8 -10 -11
-5 -3 -10 -1 -10 4 0 6 5 11 10 11 6 0 10 -2 10 -4z m-1135 -26 c3 -5 1 -10
-4 -10 -6 0 -11 5 -11 10 0 6 2 10 4 10 3 0 8 -4 11 -10z m25 -35 c7 -9 8 -15
2 -15 -5 0 -12 7 -16 15 -3 8 -4 15 -2 15 2 0 9 -7 16 -15z m596 0 c-8 -8 -18
-15 -22 -15 -3 0 -1 7 6 15 7 8 17 15 22 15 5 0 3 -7 -6 -15z m-560 -63 c-3
-2 -1 -14 5 -26 10 -20 9 -20 -5 -2 -9 10 -13 23 -10 27 3 5 0 9 -5 9 -6 0
-11 5 -11 11 0 8 5 7 15 -1 9 -7 13 -15 11 -18z m127 -168 c51 -81 98 -113
207 -143 58 -16 62 -19 43 -29 -12 -7 -44 -12 -72 -12 -29 0 -53 -5 -58 -12
-11 -18 -49 -38 -57 -31 -10 10 15 33 35 33 27 0 24 13 -18 62 -20 23 -57 75
-83 115 -26 40 -50 69 -54 66 -6 -6 -28 41 -41 87 -7 26 6 8 98 -136z m-65 21
c-3 -3 -9 2 -12 12 -6 14 -5 15 5 6 7 -7 10 -15 7 -18z m-273 -52 c14 -32 33
-65 41 -75 9 -9 13 -21 10 -27 -4 -5 -2 -12 4 -16 6 -3 17 -21 26 -38 l15 -32
-24 28 c-36 42 -130 236 -108 223 5 -4 21 -32 36 -63z m555 37 c0 -5 -2 -10
-4 -10 -3 0 -8 5 -11 10 -3 6 -1 10 4 10 6 0 11 -4 11 -10z m-143 -157 c22
-31 22 -31 2 -36 -11 -3 -23 -14 -25 -24 -6 -24 -52 -45 -73 -34 -9 5 -23 6
-31 3 -8 -2 -3 5 12 17 14 11 31 21 36 21 27 0 54 82 31 96 -5 3 -9 10 -9 16
0 13 23 -11 57 -59z m-258 -10 c2 -2 -6 -3 -18 -3 -15 0 -25 7 -28 20 -5 18
-7 18 -17 5 -7 -10 -16 -12 -26 -5 -12 7 -10 11 10 18 20 8 30 5 50 -12 14
-11 27 -22 29 -23z m-179 28 c0 -5 -7 -12 -16 -15 -14 -5 -15 -4 -4 9 14 17
20 19 20 6z m1166 -97 c27 -28 34 -32 35 -17 0 16 1 16 9 -2 5 -11 9 -27 9
-35 0 -9 -4 -8 -9 5 -5 12 -9 14 -9 6 -1 -11 -6 -9 -20 6 -11 11 -35 30 -55
42 -42 26 -44 31 -15 31 12 0 37 -16 55 -36z m34 14 c0 -15 -18 -17 -30 -3 -9
11 -8 14 9 12 12 -1 21 -5 21 -9z m210 -88 c0 -5 -4 -10 -10 -10 -5 0 -10 5
-10 10 0 6 5 10 10 10 6 0 10 -4 10 -10z m-909 -58 c-5 -9 -19 -26 -31 -37
-21 -19 -21 -19 -15 1 4 14 3 13 -6 -3 -11 -21 -13 -22 -25 -6 -11 16 -11 14
-7 -9 5 -26 -17 -96 -57 -176 -11 -23 -18 -47 -15 -52 3 -5 0 -7 -8 -4 -11 4
-13 -1 -10 -19 3 -14 0 -28 -6 -31 -6 -4 -11 -2 -11 3 0 6 -4 11 -10 11 -5 0
-7 -7 -4 -15 10 -25 22 -17 59 37 23 35 31 54 23 59 -19 12 29 69 58 69 24 0
24 0 -8 -31 -18 -17 -27 -27 -19 -23 7 4 12 3 9 -2 -2 -5 -16 -36 -31 -68 -25
-53 -26 -61 -12 -76 8 -9 15 -25 16 -36 0 -18 1 -18 8 1 5 12 7 -9 4 -50 -4
-69 -18 -115 -35 -115 -4 0 -8 17 -8 38 0 40 -7 55 -21 46 -5 -2 -3 -16 3 -29
8 -19 8 -28 -2 -40 -7 -8 -10 -27 -7 -42 5 -22 2 -19 -13 12 -11 22 -20 55
-20 73 0 18 -7 49 -16 70 -9 20 -22 66 -29 102 -6 36 -15 74 -20 85 -4 11 9 2
28 -20 l34 -39 7 31 c4 18 21 50 37 73 35 48 36 93 4 98 -35 7 -37 19 -3 14
26 -3 31 -2 21 8 -8 8 -24 10 -49 5 -28 -5 -34 -9 -23 -16 10 -6 3 -9 -22 -9
-39 0 -49 -12 -49 -56 0 -13 -4 -24 -10 -24 -19 0 -10 57 15 91 14 19 34 49
46 67 19 28 26 32 67 32 l45 0 -19 -21 c-19 -22 -19 -22 3 -10 12 6 29 11 38
11 9 0 28 9 42 20 33 26 68 28 54 2z m804 -12 c-3 -5 -11 -10 -16 -10 -6 0 -7
5 -4 10 3 6 11 10 16 10 6 0 7 -4 4 -10z m-805 -65 c9 -11 9 -15 1 -15 -7 0
-9 -4 -6 -10 9 -15 -2 -12 -19 6 -16 15 -14 34 3 34 5 0 14 -7 21 -15z m65 5
c-3 -5 -11 -10 -16 -10 -6 0 -7 5 -4 10 3 6 11 10 16 10 6 0 7 -4 4 -10z m662
-22 c-3 -7 -5 -2 -5 12 0 14 2 19 5 13 2 -7 2 -19 0 -25z m-919 -50 c-14 -10
-14 -14 -2 -33 13 -19 13 -24 -1 -35 -8 -7 -15 -19 -15 -26 0 -22 -26 -16 -37
9 -9 19 -10 47 -4 79 1 8 28 15 56 16 18 1 18 0 3 -10z m27 -18 c3 -5 -1 -10
-9 -10 -9 0 -16 5 -16 10 0 6 4 10 9 10 6 0 13 -4 16 -10z m-100 -60 c3 -5 1
-10 -4 -10 -6 0 -11 5 -11 10 0 6 2 10 4 10 3 0 8 -4 11 -10z m1021 -165 c5
-12 9 -13 20 -4 12 9 13 9 8 -4 -3 -9 -15 -17 -27 -19 -30 -4 -34 -57 -12
-157 18 -79 31 -111 48 -123 8 -4 7 -15 -1 -33 -7 -14 -12 -58 -13 -98 -1 -40
-5 -99 -9 -132 -5 -45 -7 -21 -8 100 -1 152 -14 259 -32 270 -4 3 -6 -5 -4
-17 l5 -23 -10 22 c-9 19 -17 55 -20 86 -1 5 -7 5 -13 1 -7 -4 -10 -4 -6 1 4
4 2 15 -5 23 -7 9 -7 13 -1 9 13 -7 34 33 34 65 0 13 5 18 14 15 8 -3 17 0 19
7 4 9 -2 11 -19 8 -13 -2 -24 -9 -24 -16 0 -6 -5 -4 -10 4 -7 11 -4 17 13 22
36 10 47 9 53 -7z m-1216 -36 c0 -5 -4 -9 -10 -9 -5 0 -10 7 -10 16 0 8 5 12
10 9 6 -3 10 -10 10 -16z m225 -139 c-3 -5 -15 -15 -26 -21 -19 -10 -20 -9 -9
10 6 12 18 21 26 21 8 0 12 -4 9 -10z m-57 -58 c6 -18 -15 -14 -22 4 -4 10 -1
14 6 12 6 -2 14 -10 16 -16z m1222 12 c0 -8 -19 -13 -24 -6 -3 5 1 9 9 9 8 0
15 -2 15 -3z m-1040 -258 c1 -6 19 -29 41 -51 43 -43 72 -89 62 -99 -3 -3 -17
9 -30 27 -13 17 -29 33 -36 33 -7 1 -17 2 -24 3 -11 1 -24 33 -36 88 -3 15 -1
20 9 16 8 -3 14 -10 14 -17z m-30 -95 c-10 -18 -10 -17 -15 54 l-3 50 13 -44
c9 -29 11 -50 5 -60z m147 -86 c-4 -8 -14 -15 -23 -15 -16 0 -16 2 1 20 20 22
31 20 22 -5z m-27 -104 c0 -6 -5 -13 -10 -16 -8 -5 -7 -11 1 -21 14 -17 -2
-19 -19 -2 -7 7 -8 17 -1 30 10 19 29 25 29 9z m910 -161 c0 -5 -4 -10 -10
-10 -5 0 -10 5 -10 10 0 6 5 10 10 10 6 0 10 -4 10 -10z m-273 -106 c-7 -7
-37 7 -37 17 0 6 9 5 21 -1 11 -7 19 -14 16 -16z m-647 -5 c0 -5 -5 -7 -10 -4
-6 3 -13 -1 -16 -9 -3 -9 -11 -16 -17 -16 -5 0 -2 9 8 20 20 22 35 26 35 9z
m680 -60 c0 -11 -4 -18 -10 -14 -5 3 -7 12 -3 20 7 21 13 19 13 -6z m-834 -45
c-18 -18 -22 -18 -30 2 -3 8 -2 12 3 9 5 -3 12 -1 16 5 4 6 11 8 16 5 5 -4 3
-13 -5 -21z m314 -94 c0 -5 -7 -10 -16 -10 -8 0 -12 5 -9 10 3 6 10 10 16 10
5 0 9 -4 9 -10z m-50 -40 c0 -5 -4 -10 -10 -10 -5 0 -10 5 -10 10 0 6 5 10 10
10 6 0 10 -4 10 -10z"/>
<path d="M1975 2770 c-4 -6 3 -10 14 -10 25 0 27 6 6 13 -8 4 -17 2 -20 -3z"/>
<path d="M716 2368 c4 -13 26 -45 48 -73 23 -27 48 -62 56 -78 7 -15 26 -35
42 -45 26 -17 27 -20 14 -32 -13 -10 -16 -10 -16 3 0 9 -9 21 -20 27 -31 16
-26 -11 8 -43 29 -28 53 -37 33 -13 -10 12 -7 17 14 28 l26 14 -35 16 c-27 13
-66 63 -66 85 0 7 25 -2 32 -12 5 -6 8 -5 8 3 0 7 -7 15 -15 18 -9 4 -14 12
-13 19 2 7 -19 34 -46 59 -53 51 -82 60 -70 24z m104 -63 c7 -9 8 -15 2 -15
-5 0 -12 7 -16 15 -3 8 -4 15 -2 15 2 0 9 -7 16 -15z"/>
<path d="M850 2210 c0 -5 7 -7 15 -4 8 4 15 8 15 10 0 2 -7 4 -15 4 -8 0 -15
-4 -15 -10z"/>
<path d="M929 2186 c18 -10 20 -15 10 -19 -10 -4 -9 -6 4 -6 9 -1 17 3 17 9 0
10 -32 30 -47 30 -4 -1 3 -7 16 -14z"/>
<path d="M917 2103 c-3 -5 10 -8 29 -9 21 0 30 3 22 8 -16 10 -45 10 -51 1z"/>
<path d="M913 2051 c8 -21 17 -27 41 -28 l31 -2 -27 10 c-16 6 -28 17 -28 24
0 7 -6 15 -14 18 -11 4 -12 0 -3 -22z"/>
<path d="M990 2010 c0 -5 5 -10 10 -10 6 0 10 5 10 10 0 6 -4 10 -10 10 -5 0
-10 -4 -10 -10z"/>
<path d="M1224 1934 c11 -8 38 -13 60 -13 41 1 37 3 -39 19 -36 8 -38 7 -21
-6z"/>
<path d="M975 1630 c-3 -5 1 -10 10 -10 9 0 13 5 10 10 -3 6 -8 10 -10 10 -2
0 -7 -4 -10 -10z"/>
<path d="M1013 1343 c1 -24 5 -43 8 -43 4 0 10 -19 15 -42 l8 -43 4 54 c2 30
-1 57 -5 60 -5 3 -14 17 -20 31 -11 23 -12 22 -10 -17z"/>
<path d="M1087 1330 c-3 -8 -8 -31 -11 -50 -6 -35 -6 -35 9 -10 l15 25 -1 -30
c-3 -53 1 -85 10 -85 6 0 9 18 9 40 0 50 -24 131 -31 110z"/>
<path d="M1460 2880 c-8 -5 -10 -10 -5 -10 6 0 17 5 25 10 8 5 11 10 5 10 -5
0 -17 -5 -25 -10z"/>
<path d="M1336 2841 c-20 -20 -73 -55 -116 -77 -63 -30 -80 -44 -80 -60 0 -12
7 -27 15 -34 12 -10 22 -7 56 16 23 16 57 39 76 50 51 31 66 49 80 96 7 23 11
43 9 45 -1 1 -19 -15 -40 -36z m-36 -71 c0 -5 -4 -10 -10 -10 -5 0 -10 5 -10
10 0 6 5 10 10 10 6 0 10 -4 10 -10z m-94 -56 c-9 -9 -20 -14 -23 -10 -4 3 2
13 13 20 25 18 31 12 10 -10z"/>
<path d="M1822 2734 c-34 -24 -77 -118 -116 -255 -31 -113 -34 -128 -23 -168
8 -29 9 -45 2 -48 -6 -2 -9 -42 -8 -100 2 -89 4 -99 28 -120 34 -32 32 -37
-15 -30 -22 3 -42 1 -45 -3 -8 -13 71 -22 125 -15 32 4 50 3 50 -3 0 -6 -10
-13 -22 -15 -16 -3 -13 -5 10 -6 58 -2 34 25 -50 58 -25 10 -28 15 -28 60 0
30 5 51 13 54 9 4 9 8 0 14 -6 4 -14 49 -18 98 -6 78 -4 102 15 170 29 103 50
144 95 183 65 58 102 38 125 -68 17 -81 25 -254 11 -246 -7 5 -9 -3 -5 -23 5
-25 -3 -83 -23 -154 -2 -9 -9 -15 -14 -12 -5 4 -5 14 1 26 15 26 -2 24 -28 -4
-29 -30 -30 -52 -2 -37 48 26 29 -59 -25 -110 -13 -12 -45 -25 -71 -29 -39 -7
-43 -9 -17 -10 49 -2 130 37 142 68 45 114 73 392 52 515 -23 131 -74 226
-120 226 -9 0 -27 -7 -39 -16z m72 -28 c32 -29 33 -46 4 -46 -13 -1 -33 -6
-44 -13 -25 -14 -104 -111 -104 -127 0 -5 -5 -10 -11 -10 -5 0 -9 3 -7 8 16
33 28 63 38 100 11 43 50 93 80 105 8 3 16 6 17 6 1 1 13 -10 27 -23z m-158
-232 c-4 -9 -9 -15 -11 -12 -3 3 -3 13 1 22 4 9 9 15 11 12 3 -3 3 -13 -1 -22z
m-39 -126 c-3 -8 -6 -5 -6 6 -1 11 2 17 5 13 3 -3 4 -12 1 -19z m13 -138 c4
-95 0 -150 -10 -150 -5 0 -7 26 -5 63 2 34 5 82 5 106 0 62 8 48 10 -19z"/>
<path d="M1640 2701 c0 -8 -7 -11 -15 -7 -8 3 -15 1 -15 -3 0 -17 28 -20 34
-4 4 9 4 18 1 21 -3 3 -5 0 -5 -7z"/>
<path d="M1503 2646 c-15 -18 -68 -54 -116 -81 -85 -45 -87 -48 -73 -69 17
-25 51 -24 81 3 11 10 41 30 67 44 54 31 54 32 72 92 17 54 8 57 -31 11z m-33
-76 c0 -5 -4 -10 -9 -10 -6 0 -13 5 -16 10 -3 6 1 10 9 10 9 0 16 -4 16 -10z
m-78 -42 c-7 -7 -12 -8 -12 -2 0 6 3 14 7 17 3 4 9 5 12 2 2 -3 -1 -11 -7 -17z"/>
<path d="M846 2645 c-3 -9 -10 -14 -15 -10 -5 3 -12 1 -16 -5 -3 -5 3 -10 15
-10 19 0 39 25 27 36 -2 3 -7 -2 -11 -11z"/>
<path d="M1147 2643 c-4 -3 -2 -12 4 -20 9 -10 15 -10 25 -2 8 6 14 16 14 22
0 7 -4 7 -12 -1 -15 -15 -32 -16 -23 -2 7 11 2 13 -8 3z"/>
<path d="M563 2618 c-17 -22 -23 -49 -17 -74 9 -37 27 -29 20 9 -4 22 -1 40
10 55 16 23 4 32 -13 10z"/>
<path d="M1905 2599 c-11 -17 1 -21 15 -4 8 9 8 15 2 15 -6 0 -14 -5 -17 -11z"/>
<path d="M1854 2553 c-8 -21 -18 -51 -21 -68 -4 -16 -13 -35 -21 -41 -11 -8
-12 -13 -4 -18 9 -5 6 -19 -9 -47 -19 -39 -20 -41 -2 -54 16 -12 15 -14 -17
-24 -31 -9 -29 -10 23 -5 58 6 59 5 52 -18 -7 -21 -6 -21 20 6 14 16 34 51 42
77 15 45 33 66 33 37 0 -6 2 -9 5 -6 8 7 -5 38 -16 38 -5 0 -15 -11 -21 -25
-22 -50 -63 -20 -49 36 19 73 22 95 11 79 -6 -9 -10 -10 -10 -3 0 6 7 18 15
27 15 14 11 46 -6 46 -5 0 -16 -17 -25 -37z m11 -85 c-4 -18 -16 -48 -26 -66
-22 -38 -25 -56 -5 -30 11 15 17 16 39 5 35 -16 34 -21 -9 -46 -38 -23 -48
-26 -40 -12 3 5 -1 14 -8 20 -12 10 -12 17 -2 44 8 18 11 38 9 45 -3 7 1 11 8
10 7 -2 17 12 22 30 5 17 12 32 14 32 3 0 2 -15 -2 -32z"/>
<path d="M1908 2489 c9 -12 10 -24 2 -45 -9 -27 -9 -28 5 -10 20 26 19 40 -2
57 -16 12 -17 12 -5 -2z"/>
<path d="M1345 2439 c-4 -6 -5 -12 -2 -15 2 -3 7 2 10 11 7 17 1 20 -8 4z"/>
<path d="M354 2416 c-12 -13 -8 -36 7 -36 4 0 6 7 3 15 -4 8 -2 15 4 15 6 0
13 -6 15 -12 4 -8 6 -9 6 -2 2 20 -23 33 -35 20z"/>
<path d="M2310 2360 c0 -5 5 -10 10 -10 6 0 10 5 10 10 0 6 -4 10 -10 10 -5 0
-10 -4 -10 -10z"/>
<path d="M1935 2350 c3 -5 8 -10 11 -10 2 0 4 5 4 10 0 6 -5 10 -11 10 -5 0
-7 -4 -4 -10z"/>
<path d="M2700 2350 c0 -5 5 -10 10 -10 6 0 10 5 10 10 0 6 -4 10 -10 10 -5 0
-10 -4 -10 -10z"/>
<path d="M1740 2336 c0 -2 7 -6 15 -10 8 -3 15 -1 15 4 0 6 -7 10 -15 10 -8 0
-15 -2 -15 -4z"/>
<path d="M1927 2264 c-10 -13 -13 -24 -8 -24 10 0 36 39 29 45 -2 2 -11 -8
-21 -21z"/>
<path d="M1810 2270 c-13 -8 -12 -10 3 -10 9 0 17 5 17 10 0 12 -1 12 -20 0z"/>
<path d="M1173 2246 c-9 -11 -9 -15 0 -19 7 -3 14 3 14 14 2 22 2 22 -14 5z"/>
<path d="M1810 2230 c-25 -20 -25 -20 -2 -20 27 0 28 -11 2 -28 -11 -7 -20
-17 -20 -24 0 -6 8 -3 20 7 10 9 32 18 48 20 16 1 35 5 42 10 8 5 11 3 8 -6
-3 -8 -12 -14 -22 -14 -9 0 -20 -5 -24 -11 -4 -6 -20 -18 -37 -27 -20 -11 -24
-16 -12 -17 9 0 17 -5 17 -11 0 -5 5 -7 10 -4 6 4 8 11 5 16 -4 5 1 9 10 9 9
0 34 12 56 28 38 27 52 46 25 36 -8 -3 -16 3 -19 16 -5 21 -6 21 -31 5 -26
-17 -56 -15 -56 5 0 5 6 10 14 10 8 0 18 5 21 10 11 18 -29 10 -55 -10z"/>
<path d="M580 2188 c0 -15 4 -29 9 -33 16 -9 18 9 5 35 l-14 25 0 -27z"/>
<path d="M1825 2081 c-3 -5 3 -12 13 -15 10 -3 18 -14 19 -25 1 -16 -2 -17
-22 -7 -16 7 -20 13 -12 18 7 5 -4 5 -23 2 -46 -9 -47 -11 -8 -19 18 -4 41
-17 50 -28 16 -18 18 -18 18 -3 0 9 4 15 9 12 5 -4 7 3 4 14 -4 14 1 23 18 30
24 10 24 10 1 6 -12 -2 -29 2 -36 10 -17 16 -23 17 -31 5z"/>
<path d="M1750 2076 c0 -2 7 -7 16 -10 8 -3 12 -2 9 4 -6 10 -25 14 -25 6z"/>
<path d="M1570 1991 c8 -6 28 -11 44 -11 39 0 31 6 -19 14 -29 5 -36 4 -25 -3z"/>
<path d="M2295 1919 c-10 -15 3 -25 16 -12 7 7 7 13 1 17 -6 3 -14 1 -17 -5z"/>
<path d="M233 1904 c-3 -8 1 -22 9 -30 13 -13 16 -13 27 0 7 9 11 23 7 31 -7
20 -35 19 -43 -1z m35 -13 c3 -8 -1 -12 -9 -9 -7 2 -15 10 -17 17 -3 8 1 12 9
9 7 -2 15 -10 17 -17z"/>
<path d="M1480 1910 c0 -5 4 -10 9 -10 6 0 13 5 16 10 3 6 -1 10 -9 10 -9 0
-16 -4 -16 -10z"/>
<path d="M1535 1900 c-17 -7 -16 -9 10 -9 17 0 37 4 45 9 12 8 10 10 -10 9
-14 0 -34 -4 -45 -9z"/>
<path d="M1620 1890 c0 -13 11 -13 30 0 12 8 11 10 -7 10 -13 0 -23 -4 -23
-10z"/>
<path d="M1455 1870 c-3 -5 -1 -10 4 -10 6 0 11 5 11 10 0 6 -2 10 -4 10 -3 0
-8 -4 -11 -10z"/>
<path d="M1260 1860 c0 -6 10 -14 23 -19 47 -19 62 -24 70 -22 4 0 17 -3 27
-9 17 -9 20 -7 20 9 0 11 3 26 6 35 4 10 1 16 -9 16 -10 0 -13 -8 -10 -27 l3
-28 -12 25 c-6 14 -13 26 -14 28 0 1 -12 -2 -25 -7 -24 -10 -24 -10 -1 -10 12
-1 22 -5 22 -10 0 -5 -8 -8 -17 -6 -10 2 -26 4 -35 4 -10 1 -18 8 -18 16 0 8
-7 15 -15 15 -8 0 -15 -5 -15 -10z"/>
<path d="M1675 1850 c-3 -5 -15 -10 -25 -10 -10 0 -22 -5 -25 -10 -4 -6 6 -10
27 -9 50 2 68 9 68 25 0 16 -36 19 -45 4z m25 -10 c0 -5 -2 -10 -4 -10 -3 0
-8 5 -11 10 -3 6 -1 10 4 10 6 0 11 -4 11 -10z"/>
<path d="M1417 1843 c-10 -9 -9 -23 2 -23 5 0 11 7 15 15 5 15 -5 20 -17 8z"/>
<path d="M1428 1810 c-24 -33 -43 -38 -52 -15 -3 8 -11 15 -17 15 -8 0 -7 -5
2 -16 12 -15 11 -16 -11 -9 l-25 7 22 -21 c24 -23 38 -28 27 -9 -4 7 -3 8 4 4
7 -4 18 -3 26 1 21 13 69 73 57 73 -6 0 -20 -13 -33 -30z"/>
<path d="M472 1821 c4 -13 18 -16 19 -4 0 4 -5 9 -11 12 -7 2 -11 -2 -8 -8z"/>
<path d="M1798 1791 c-57 -28 -70 -28 -45 -2 10 11 9 13 -4 8 -9 -3 -22 0 -28
6 -8 8 -11 6 -11 -7 0 -9 5 -14 10 -11 6 4 10 -9 10 -33 0 -37 31 -82 56 -82
5 0 2 5 -6 10 -13 8 -12 10 4 10 11 0 38 -20 61 -44 26 -27 41 -37 38 -25 -3
10 -1 19 5 19 6 0 13 -15 15 -32 2 -18 4 -8 4 22 0 30 3 64 6 75 7 22 -30 107
-48 111 -5 2 -36 -10 -67 -25z m64 -48 c10 -9 18 -20 18 -25 0 -13 -22 -9 -42
9 -17 15 -19 15 -33 -3 -11 -15 -14 -16 -15 -3 0 37 41 50 72 22z m28 -63 c0
-5 -7 -10 -15 -10 -8 0 -15 5 -15 10 0 6 7 10 15 10 8 0 15 -4 15 -10z"/>
<path d="M1165 1793 l-40 -13 35 4 c19 2 44 8 55 12 18 7 18 6 6 -9 -12 -15
-11 -17 10 -16 13 1 38 5 54 9 28 7 28 8 5 9 -15 1 -20 4 -13 9 20 13 -70 9
-112 -5z"/>
<path d="M1308 1803 c7 -3 16 -2 19 1 4 3 -2 6 -13 5 -11 0 -14 -3 -6 -6z"/>
<path d="M1635 1785 c16 -13 31 -22 34 -20 5 6 -41 44 -54 44 -5 0 3 -11 20
-24z"/>
<path d="M1008 1793 c6 -2 18 -2 25 0 6 3 1 5 -13 5 -14 0 -19 -2 -12 -5z"/>
<path d="M1068 1783 c7 -3 16 -2 19 1 4 3 -2 6 -13 5 -11 0 -14 -3 -6 -6z"/>
<path d="M1980 1786 c0 -2 7 -6 15 -10 8 -3 15 -1 15 4 0 6 -7 10 -15 10 -8 0
-15 -2 -15 -4z"/>
<path d="M2810 1770 c0 -5 5 -10 10 -10 6 0 10 5 10 10 0 6 -4 10 -10 10 -5 0
-10 -4 -10 -10z"/>
<path d="M120 1760 c0 -5 5 -10 10 -10 6 0 10 5 10 10 0 6 -4 10 -10 10 -5 0
-10 -4 -10 -10z"/>
<path d="M1283 1763 c9 -2 23 -2 30 0 6 3 -1 5 -18 5 -16 0 -22 -2 -12 -5z"/>
<path d="M1293 1743 c9 -2 23 -2 30 0 6 3 -1 5 -18 5 -16 0 -22 -2 -12 -5z"/>
<path d="M1293 1723 c9 -2 23 -2 30 0 6 3 -1 5 -18 5 -16 0 -22 -2 -12 -5z"/>
<path d="M2466 1721 c-4 -7 -5 -15 -2 -18 9 -9 19 4 14 18 -4 11 -6 11 -12 0z"/>
<path d="M1308 1713 c-32 -2 -58 -7 -58 -11 0 -4 27 -5 60 -4 33 2 60 8 60 13
0 5 -1 8 -2 7 -2 -1 -29 -3 -60 -5z"/>
<path d="M410 1701 c0 -6 5 -13 10 -16 6 -3 10 1 10 9 0 9 -4 16 -10 16 -5 0
-10 -4 -10 -9z"/>
<path d="M1380 1700 c0 -5 5 -10 11 -10 5 0 7 5 4 10 -3 6 -8 10 -11 10 -2 0
-4 -4 -4 -10z"/>
<path d="M1325 1671 c-3 -5 -2 -12 3 -15 5 -3 9 1 9 9 0 17 -3 19 -12 6z"/>
<path d="M2326 1639 c-20 -17 -33 -35 -30 -40 3 -5 -1 -6 -9 -3 -8 3 -18 1
-22 -5 -3 -6 -19 -11 -36 -11 -27 0 -29 -3 -29 -35 0 -35 -12 -43 -39 -26 -8
5 -11 16 -6 30 7 24 -19 31 -28 7 -9 -23 26 -97 42 -91 9 4 11 0 7 -10 -3 -9
-2 -14 3 -10 5 3 12 18 16 34 4 19 21 38 55 60 28 18 54 30 59 27 14 -9 58 36
65 66 9 40 -8 42 -48 7z"/>
<path d="M2750 1651 c0 -6 5 -13 10 -16 6 -3 10 1 10 9 0 9 -4 16 -10 16 -5 0
-10 -4 -10 -9z"/>
<path d="M1538 1643 c7 -3 16 -2 19 1 4 3 -2 6 -13 5 -11 0 -14 -3 -6 -6z"/>
<path d="M640 1620 c0 -5 5 -10 10 -10 6 0 10 5 10 10 0 6 -4 10 -10 10 -5 0
-10 -4 -10 -10z"/>
<path d="M1547 1610 c6 -24 48 -56 86 -65 15 -4 24 -12 20 -18 -3 -6 -1 -7 5
-3 8 4 16 -3 22 -20 6 -15 21 -39 34 -55 13 -16 26 -34 29 -41 2 -7 8 -10 12
-6 4 4 -8 28 -26 55 l-32 48 42 -40 c28 -27 40 -46 37 -59 -6 -22 13 -68 25
-60 5 3 6 -9 3 -26 -4 -19 -2 -30 5 -30 6 0 11 12 12 28 0 27 0 27 10 4 5 -13
6 -28 3 -33 -3 -6 0 -16 6 -24 6 -8 9 -18 6 -24 -9 -14 12 -63 24 -56 5 3 10
-1 10 -10 0 -12 -5 -15 -17 -11 -15 6 -16 5 -1 -11 9 -10 30 -45 46 -78 17
-33 31 -54 32 -47 0 7 -7 27 -16 43 -8 17 -17 40 -20 50 -2 10 -6 29 -9 40 -2
12 -12 32 -20 46 -11 16 -13 28 -6 36 6 8 5 20 -4 37 -8 14 -14 33 -15 42 0 9
-12 28 -26 41 -19 18 -22 26 -12 30 10 3 14 24 13 78 -1 74 -7 99 -26 99 -6 0
-3 -7 5 -16 17 -17 21 -44 7 -44 -5 0 -11 6 -14 13 -2 6 -8 8 -13 4 -4 -4 -2
-22 5 -40 22 -53 23 -71 6 -92 -16 -20 -16 -20 -10 1 8 31 -31 103 -60 110
-13 3 -30 13 -37 22 -11 13 -10 14 9 4 14 -8 24 -9 28 -2 3 5 -1 10 -9 10 -9
0 -23 11 -31 24 -14 21 -20 23 -46 16 -25 -8 -35 -4 -63 21 -30 25 -34 27 -29
9z m123 -46 c0 -8 -5 -12 -10 -9 -6 4 -8 11 -5 16 9 14 15 11 15 -7z"/>
<path d="M1255 1610 c-3 -6 1 -7 9 -4 18 7 21 14 7 14 -6 0 -13 -4 -16 -10z"/>
<path d="M4 1515 c0 -55 1 -76 3 -47 2 29 2 74 0 100 -2 26 -3 2 -3 -53z"/>
<path d="M1840 1590 c0 -5 5 -10 11 -10 5 0 7 -5 4 -10 -4 -6 8 -25 27 -43 19
-18 38 -41 43 -52 8 -19 8 -19 12 -2 3 11 -4 25 -16 33 -12 9 -21 21 -21 28 0
17 -38 66 -51 66 -5 0 -9 -4 -9 -10z"/>
<path d="M290 1565 c0 -8 5 -15 10 -15 6 0 10 7 10 15 0 8 -4 15 -10 15 -5 0
-10 -7 -10 -15z"/>
<path d="M1392 1548 c2 -6 10 -13 16 -14 7 -1 8 0 2 3 -5 2 -8 9 -4 14 3 5 0
9 -6 9 -7 0 -10 -5 -8 -12z"/>
<path d="M2975 1530 c-3 -5 -17 -10 -31 -10 -13 0 -24 -4 -24 -10 0 -5 -11
-25 -24 -45 -14 -20 -26 -40 -28 -46 -2 -6 -22 -13 -46 -16 -24 -3 -42 -11
-42 -18 0 -21 28 -38 54 -31 24 6 164 115 165 129 2 16 -28 6 -50 -17 -13 -14
-27 -22 -32 -19 -5 3 5 18 23 34 17 16 35 27 40 24 7 -4 20 16 20 31 0 8 -19
4 -25 -6z"/>
<path d="M2630 1514 c0 -8 5 -12 10 -9 6 3 10 10 10 16 0 5 -4 9 -10 9 -5 0
-10 -7 -10 -16z"/>
<path d="M1837 1506 c-3 -8 -2 -27 3 -43 5 -17 9 -21 9 -10 1 10 6 15 11 12
13 -8 13 -2 -4 29 -10 20 -15 23 -19 12z"/>
<path d="M580 1501 c0 -6 5 -13 10 -16 6 -3 10 1 10 9 0 9 -4 16 -10 16 -5 0
-10 -4 -10 -9z"/>
<path d="M1876 1487 c3 -10 9 -15 12 -12 3 3 0 11 -7 18 -10 9 -11 8 -5 -6z"/>
<path d="M2509 1464 c-19 -20 -55 -47 -81 -60 -26 -13 -49 -28 -53 -34 -3 -5
-14 -10 -24 -10 -26 0 -41 -22 -34 -48 8 -31 41 -28 83 7 19 15 49 35 65 44
17 8 37 23 46 33 17 20 44 92 37 100 -2 2 -20 -12 -39 -32z m-39 -74 c0 -5 -2
-10 -4 -10 -3 0 -8 5 -11 10 -3 6 -1 10 4 10 6 0 11 -4 11 -10z"/>
<path d="M1336 1464 c-5 -14 -4 -15 9 -4 17 14 19 20 6 20 -5 0 -12 -7 -15
-16z"/>
<path d="M1880 1451 c0 -7 10 -21 23 -31 12 -10 19 -22 14 -26 -4 -4 -14 1
-23 12 -14 17 -15 18 -10 1 3 -10 6 -22 6 -27 0 -4 9 -6 20 -3 15 4 19 13 18
39 -1 19 -6 38 -11 41 -7 4 -8 -1 -3 -12 7 -18 6 -18 -14 0 -13 11 -20 14 -20
6z"/>
<path d="M1279 1433 c-13 -16 -12 -17 4 -4 9 7 17 15 17 17 0 8 -8 3 -21 -13z"/>
<path d="M2990 1383 c0 -82 -19 -195 -31 -187 -5 3 -7 10 -4 15 4 5 2 9 -3 9
-17 0 -23 -32 -11 -65 10 -27 8 -44 -15 -117 -64 -199 -234 -488 -287 -488
-10 0 -21 -9 -24 -20 -3 -11 -13 -20 -21 -20 -16 0 -19 -27 -4 -32 6 -2 -3
-17 -21 -33 -18 -17 -29 -25 -26 -18 8 13 -1 43 -13 43 -4 0 -10 -10 -13 -21
-5 -18 -11 -21 -40 -15 -26 5 -38 2 -52 -14 -19 -21 -11 -27 15 -11 8 6 18 7
23 4 5 -3 3 -9 -4 -14 -11 -7 -12 -10 -1 -21 11 -11 17 -8 35 13 15 18 32 27
51 27 21 0 35 8 50 28 12 16 21 33 22 39 2 23 17 44 26 39 11 -7 88 64 88 81
0 7 9 20 20 30 11 10 20 24 20 32 0 7 4 13 8 13 5 0 17 17 28 38 10 20 21 39
24 42 3 3 19 33 35 67 17 35 34 63 38 63 5 0 5 4 2 10 -3 5 4 32 16 59 31 73
59 185 47 192 -13 9 -11 16 12 39 18 18 20 33 20 140 0 66 -2 120 -5 120 -3 0
-5 -30 -5 -67z"/>
<path d="M800 1425 c-7 -9 -8 -15 -2 -15 5 0 12 7 16 15 3 8 4 15 2 15 -2 0
-9 -7 -16 -15z"/>
<path d="M1200 1409 c0 -5 5 -7 10 -4 6 3 10 8 10 11 0 2 -4 4 -10 4 -5 0 -10
-5 -10 -11z"/>
<path d="M1580 1405 c-7 -9 -10 -18 -7 -22 4 -3 9 2 13 11 3 9 11 13 17 9 6
-3 7 -1 3 5 -9 15 -11 15 -26 -3z"/>
<path d="M455 1370 c-3 -5 1 -10 9 -10 9 0 16 5 16 10 0 6 -4 10 -9 10 -6 0
-13 -4 -16 -10z"/>
<path d="M1295 1370 c-3 -5 -1 -10 4 -10 6 0 11 5 11 10 0 6 -2 10 -4 10 -3 0
-8 -4 -11 -10z"/>
<path d="M1400 1370 c0 -5 5 -10 10 -10 6 0 10 5 10 10 0 6 -4 10 -10 10 -5 0
-10 -4 -10 -10z"/>
<path d="M1189 1353 c-13 -17 -13 -17 6 -3 11 8 22 16 24 17 2 2 0 3 -6 3 -6
0 -17 -8 -24 -17z"/>
<path d="M1648 1353 c7 -3 16 -2 19 1 4 3 -2 6 -13 5 -11 0 -14 -3 -6 -6z"/>
<path d="M357 1322 c-43 -5 -49 -50 -12 -97 15 -19 16 -19 10 11 -4 22 0 38
16 58 25 31 24 33 -14 28z"/>
<path d="M1205 1310 c4 -6 11 -8 16 -5 14 9 11 15 -7 15 -8 0 -12 -5 -9 -10z"/>
<path d="M1445 1310 c-3 -5 1 -13 10 -16 22 -9 29 1 11 15 -10 8 -16 9 -21 1z"/>
<path d="M2670 1261 c-25 -26 -77 -61 -115 -80 -39 -19 -72 -36 -74 -38 -9 -7
20 -53 33 -53 8 0 38 18 67 40 30 22 58 40 64 40 21 0 53 45 65 89 6 23 10 44
8 45 -2 1 -23 -18 -48 -43z m-30 -71 c0 -5 -4 -10 -10 -10 -5 0 -10 5 -10 10
0 6 5 10 10 10 6 0 10 -4 10 -10z m-110 -60 c0 -5 -5 -10 -11 -10 -5 0 -7 5
-4 10 3 6 8 10 11 10 2 0 4 -4 4 -10z"/>
<path d="M1310 1293 c8 -3 18 -11 22 -17 9 -14 22 -1 13 13 -3 6 -16 11 -28
10 -15 0 -17 -2 -7 -6z"/>
<path d="M1382 1278 c-17 -17 -15 -29 3 -21 20 7 51 -21 59 -53 6 -23 26 -34
26 -14 0 6 -4 10 -10 10 -5 0 -10 11 -10 23 0 16 -9 28 -26 35 -14 7 -22 17
-19 22 9 14 -9 12 -23 -2z"/>
<path d="M1527 1271 c-4 -17 -3 -21 5 -13 5 5 8 16 6 23 -3 8 -7 3 -11 -10z"/>
<path d="M1275 1270 c-3 -5 1 -10 9 -10 8 0 18 5 21 10 3 6 -1 10 -9 10 -8 0
-18 -4 -21 -10z"/>
<path d="M2336 1271 c-4 -7 -5 -15 -2 -18 9 -9 19 4 14 18 -4 11 -6 11 -12 0z"/>
<path d="M280 1249 c-14 -4 -36 -11 -50 -13 -14 -3 -34 -13 -45 -23 -11 -10
-28 -17 -37 -15 -18 3 -16 -17 5 -68 10 -26 10 -25 83 49 66 67 81 84 72 80
-2 -1 -14 -5 -28 -10z m-80 -68 c0 -5 -7 -14 -15 -21 -12 -10 -15 -10 -15 2 0
8 3 18 7 21 9 10 23 9 23 -2z"/>
<path d="M1398 1238 c7 -7 12 -21 12 -32 0 -14 3 -17 11 -9 13 13 -5 53 -23
53 -9 0 -9 -3 0 -12z"/>
<path d="M961 1231 c-8 -5 -9 -11 -3 -15 5 -3 12 1 16 9 6 17 6 18 -13 6z"/>
<path d="M1810 1221 c0 -11 4 -22 9 -25 5 -3 8 5 7 19 -1 29 -16 34 -16 6z"/>
<path d="M1258 1223 c-19 -5 -25 -23 -9 -23 17 0 41 12 41 21 0 9 -4 10 -32 2z"/>
<path d="M1520 1215 c0 -8 2 -15 4 -15 2 0 6 7 10 15 3 8 1 15 -4 15 -6 0 -10
-7 -10 -15z"/>
<path d="M1727 1211 c-2 -10 -1 -24 3 -30 4 -7 7 1 8 18 1 35 -3 40 -11 12z"/>
<path d="M1374 1205 c-4 -8 -12 -15 -20 -15 -8 0 -14 -6 -14 -13 0 -20 30 -57
46 -57 11 0 13 -6 9 -20 -4 -12 -2 -20 5 -20 7 0 10 -6 7 -13 -4 -10 3 -12 24
-9 16 2 29 9 29 14 0 5 5 6 11 3 6 -4 5 2 -3 14 -12 20 -13 20 -20 1 -4 -11
-12 -20 -17 -20 -14 0 -23 34 -15 55 5 13 4 16 -4 11 -8 -4 -10 -2 -6 7 3 8
-2 21 -11 30 -9 10 -11 18 -5 22 5 3 10 10 10 16 0 15 -20 10 -26 -6z m10 -41
c8 -22 8 -24 -7 -24 -7 0 -13 9 -14 20 -2 24 12 27 21 4z"/>
<path d="M1760 1204 c0 -8 5 -12 10 -9 6 4 8 11 5 16 -9 14 -15 11 -15 -7z"/>
<path d="M1290 1191 c0 -6 5 -13 10 -16 6 -3 10 1 10 9 0 9 -4 16 -10 16 -5 0
-10 -4 -10 -9z"/>
<path d="M626 1174 c-4 -10 -1 -14 6 -12 15 5 23 28 10 28 -5 0 -13 -7 -16
-16z"/>
<path d="M1426 1174 c-4 -9 -4 -19 -1 -22 2 -3 7 3 11 12 4 9 4 19 1 22 -2 3
-7 -3 -11 -12z"/>
<path d="M1457 1155 c-4 -8 -2 -17 3 -20 6 -4 10 3 10 14 0 25 -6 27 -13 6z"/>
<path d="M1502 1144 c-16 -19 -18 -25 -6 -20 8 3 27 6 40 6 14 0 23 4 19 10
-3 5 -13 7 -23 4 -14 -5 -14 -3 2 10 14 12 16 16 5 16 -8 0 -24 -12 -37 -26z"/>
<path d="M1777 1164 c-3 -3 -1 -19 5 -36 15 -41 -4 -119 -43 -179 -37 -58 -51
-135 -33 -178 7 -17 20 -31 30 -31 10 0 14 -5 11 -14 -3 -8 1 -20 9 -26 10 -9
14 -9 14 -1 0 6 7 11 16 11 14 0 14 -3 4 -15 -9 -10 -9 -15 -1 -15 16 0 13
-11 -9 -40 -15 -20 -21 -23 -31 -12 -7 6 -21 12 -31 12 -17 0 -39 54 -37 90 1
8 4 4 8 -10 4 -14 15 -26 24 -26 14 -2 15 -1 1 3 -10 3 -14 12 -11 24 3 10 -1
23 -9 30 -9 8 -14 33 -14 80 0 58 -3 70 -22 83 -12 8 -25 13 -30 10 -10 -7
-45 32 -59 65 -9 23 -10 23 -24 5 -17 -22 -20 -3 -5 27 7 13 7 19 0 19 -5 0
-10 -7 -10 -15 0 -33 -18 -12 -22 25 -3 38 4 51 17 30 4 -6 10 -8 15 -5 5 3
11 1 15 -4 3 -6 12 -8 19 -5 9 3 17 -3 21 -15 3 -12 11 -19 16 -15 6 4 3 14
-8 27 -17 19 -17 20 0 14 18 -7 24 7 7 18 -5 3 -14 20 -19 38 l-9 32 -1 -42
c-1 -48 -11 -53 -41 -23 -11 11 -20 16 -20 10 0 -5 -7 -10 -16 -10 -13 0 -15
-7 -11 -34 4 -25 1 -36 -9 -40 -8 -3 -19 -17 -24 -31 -6 -15 -14 -24 -19 -20
-6 3 -18 -4 -29 -15 -15 -17 -23 -18 -53 -10 -41 12 -39 12 -38 3 3 -20 -2
-26 -11 -13 -8 12 -10 10 -10 -10 0 -41 -11 -69 -25 -64 -7 3 -15 -5 -19 -20
-3 -14 -11 -26 -16 -26 -14 0 -13 13 2 28 8 8 9 12 1 12 -6 0 -13 -6 -16 -12
-2 -7 -8 -10 -12 -6 -4 4 -2 14 5 23 7 8 9 15 4 15 -5 0 -1 5 9 11 9 5 22 7
29 3 8 -5 9 -2 5 10 -4 10 -7 19 -7 22 0 2 -14 11 -31 20 -22 11 -28 19 -21
26 8 8 16 7 28 -3 16 -13 16 -12 5 8 -12 24 -35 22 -45 -4 -7 -18 1 -33 18
-33 8 0 19 -7 26 -15 10 -12 7 -15 -14 -21 -20 -5 -25 -11 -21 -25 7 -21 -10
-27 -18 -6 -4 7 -6 6 -6 -4 -1 -9 6 -20 14 -23 9 -3 31 -37 49 -75 18 -39 36
-68 39 -64 4 3 -1 19 -9 35 -18 35 -11 96 11 104 8 3 17 16 21 27 11 38 35 57
71 57 18 0 33 4 33 9 0 14 33 23 40 11 3 -5 14 7 24 27 19 40 22 39 54 -13 7
-11 39 -30 99 -59 l33 -15 -1 -78 c0 -94 18 -159 51 -184 26 -19 74 -33 65
-19 -3 5 7 12 23 16 15 4 22 9 15 12 -8 3 -8 14 -2 39 11 39 4 58 -20 52 -9
-2 -23 3 -32 13 -16 16 -15 18 12 38 15 12 33 38 40 59 11 40 48 96 49 75 0
-17 49 -67 57 -59 4 4 3 10 -3 14 -5 4 -20 21 -32 39 -30 42 -12 52 33 17 19
-14 35 -22 35 -18 0 5 -14 18 -31 29 -17 11 -37 34 -45 50 l-13 30 -1 -35 c0
-21 -10 -51 -25 -72 -14 -20 -25 -42 -25 -47 0 -6 -5 -11 -11 -11 -6 0 -9 -7
-5 -15 3 -8 1 -15 -4 -15 -6 0 -10 -7 -10 -15 0 -8 -11 -17 -25 -21 -30 -7
-46 3 -26 16 8 4 11 15 7 25 -9 25 10 53 54 75 49 25 60 45 61 112 1 29 3 45
6 35 2 -9 8 -15 13 -12 4 3 11 -11 14 -30 7 -37 12 -41 36 -25 13 8 11 11 -7
16 -23 6 -32 24 -13 24 6 0 1 9 -9 19 -10 10 -22 33 -26 50 -7 33 -37 56 -61
47 -9 -3 -12 -1 -9 4 3 6 0 10 -7 10 -9 0 -9 3 2 10 8 5 10 10 4 10 -6 0 -13
-3 -17 -6z m63 -69 c20 -24 6 -28 -15 -5 -10 11 -13 20 -8 20 6 0 16 -7 23
-15z m-5 -46 c12 -36 -4 -103 -29 -121 -36 -26 -49 -9 -31 38 9 21 22 51 30
65 8 14 12 29 8 33 -3 3 -1 6 5 6 6 0 14 -9 17 -21z m-265 -91 c0 -5 -4 -8
-10 -8 -5 0 -10 10 -10 23 0 18 2 19 10 7 5 -8 10 -18 10 -22z m174 -53 c3 -9
0 -15 -9 -15 -9 0 -12 6 -9 15 4 8 7 15 9 15 2 0 5 -7 9 -15z"/>
<path d="M1821 1014 c0 -11 3 -14 6 -6 3 7 2 16 -1 19 -3 4 -6 -2 -5 -13z"/>
<path d="M1700 1140 c-4 -46 1 -75 16 -90 16 -16 19 -3 5 19 -6 9 -6 22 1 34
6 12 7 22 1 26 -6 3 -13 13 -16 21 -3 10 -6 6 -7 -10z"/>
<path d="M1305 1140 c3 -5 0 -10 -7 -10 -9 0 -9 -3 2 -10 8 -5 19 -5 24 0 10
10 0 30 -15 30 -6 0 -7 -4 -4 -10z"/>
<path d="M510 1115 c-26 -28 -118 -84 -165 -101 -35 -13 -45 -42 -20 -60 21
-15 40 -9 83 28 18 15 38 28 45 28 22 1 65 45 81 84 9 21 16 40 16 42 0 11
-19 1 -40 -21z m-40 -69 c0 -3 -4 -8 -10 -11 -5 -3 -10 -1 -10 4 0 6 5 11 10
11 6 0 10 -2 10 -4z m-70 -41 c0 -2 -15 -12 -32 -20 l-33 -16 25 20 c24 20 40
26 40 16z"/>
<path d="M1625 1130 c-16 -7 -11 -9 20 -9 29 -1 36 2 25 9 -17 11 -19 11 -45
0z"/>
<path d="M1241 1105 c-1 -11 8 -26 19 -33 11 -7 20 -8 20 -3 0 6 -6 14 -14 18
-7 4 -16 15 -19 23 -4 11 -6 9 -6 -5z"/>
<path d="M2849 1072 c-21 -24 -66 -56 -117 -82 -84 -43 -102 -68 -65 -89 20
-11 58 5 87 38 11 12 25 21 32 21 26 0 73 52 88 97 9 25 14 48 12 50 -2 2 -19
-14 -37 -35z m-44 -72 c3 -5 1 -10 -4 -10 -6 0 -11 5 -11 10 0 6 2 10 4 10 3
0 8 -4 11 -10z m-95 -60 c-6 -11 -15 -18 -21 -15 -15 10 -11 23 9 28 9 3 18 5
20 6 1 0 -2 -8 -8 -19z"/>
<path d="M1325 1090 c20 -9 20 -9 0 -10 -15 -1 -12 -4 13 -15 17 -8 32 -19 32
-26 0 -8 -4 -8 -15 1 -9 7 -15 8 -15 2 0 -14 24 -22 39 -13 18 11 -6 58 -33
65 -31 8 -44 6 -21 -4z"/>
<path d="M1657 1086 c-3 -8 1 -17 9 -20 9 -4 14 1 14 14 0 23 -15 27 -23 6z"/>
<path d="M2177 1084 c-4 -4 -7 -14 -7 -23 0 -11 3 -12 11 -4 6 6 10 16 7 23
-2 6 -7 8 -11 4z"/>
<path d="M2500 1064 c0 -8 5 -12 10 -9 6 3 10 10 10 16 0 5 -4 9 -10 9 -5 0
-10 -7 -10 -16z"/>
<path d="M1209 1053 c-13 -15 -12 -15 9 -4 23 12 28 21 13 21 -5 0 -15 -7 -22
-17z"/>
<path d="M1282 1053 c-7 -7 -9 -13 -4 -13 5 0 14 -10 20 -22 6 -13 11 -17 11
-10 1 10 6 10 22 2 31 -17 30 -8 -5 26 -26 25 -34 28 -44 17z m26 -28 c-3 -3
-9 2 -12 12 -6 14 -5 15 5 6 7 -7 10 -15 7 -18z"/>
<path d="M1626 1037 c-5 -15 -6 -31 -2 -34 11 -11 18 5 14 34 l-4 28 -8 -28z"/>
<path d="M1154 1034 c-14 -6 3 -74 18 -74 8 0 5 19 -10 59 -4 10 -1 13 12 8
10 -4 20 -7 22 -7 3 0 2 -5 -2 -12 -4 -7 -3 -8 5 -4 9 6 9 11 0 22 -12 14 -24
16 -45 8z"/>
<path d="M1220 1036 c0 -5 8 -18 18 -29 9 -10 22 -35 28 -56 l11 -36 0 55 c-1
30 -3 46 -5 36 -4 -17 -7 -16 -28 10 -13 16 -23 25 -24 20z"/>
<path d="M1413 1018 c3 -9 1 -18 -6 -21 -6 -2 -4 -6 6 -10 11 -4 20 1 28 16 7
12 8 19 4 15 -5 -4 -15 -2 -23 5 -13 10 -15 9 -9 -5z"/>
<path d="M1674 1010 c-12 -5 -25 -14 -30 -21 -5 -9 -2 -10 12 -4 10 4 26 9 34
10 8 1 26 7 40 13 l25 11 -30 0 c-16 0 -40 -4 -51 -9z"/>
<path d="M2391 1006 c-7 -9 -20 -16 -28 -16 -7 0 -16 -6 -19 -14 -3 -8 -33
-38 -67 -66 -51 -43 -87 -92 -87 -117 0 -3 17 9 37 27 20 18 50 38 67 45 37
16 77 57 100 103 19 38 17 63 -3 38z"/>
<path d="M1340 980 c0 -5 7 -10 16 -10 8 0 12 5 9 10 -3 6 -10 10 -16 10 -5 0
-9 -4 -9 -10z"/>
<path d="M775 971 c-3 -5 -2 -12 3 -15 5 -3 9 1 9 9 0 17 -3 19 -12 6z"/>
<path d="M2250 950 c0 -5 5 -10 10 -10 6 0 10 5 10 10 0 6 -4 10 -10 10 -5 0
-10 -4 -10 -10z"/>
<path d="M672 917 c-18 -18 -68 -52 -112 -76 -82 -43 -97 -65 -65 -91 12 -10
22 -7 57 16 23 16 60 39 82 52 45 25 55 39 72 95 15 46 7 47 -34 4z m-122
-128 c0 -6 -4 -8 -9 -4 -5 3 -12 1 -16 -5 -4 -6 -11 -8 -16 -4 -6 3 -3 12 8
19 19 14 33 11 33 -6z"/>
<path d="M1140 930 c0 -5 5 -10 10 -10 6 0 10 5 10 10 0 6 -4 10 -10 10 -5 0
-10 -4 -10 -10z"/>
<path d="M325 920 c-3 -5 1 -10 9 -10 9 0 16 5 16 10 0 6 -4 10 -9 10 -6 0
-13 -4 -16 -10z"/>
<path d="M2347 884 c-4 -4 -7 -14 -7 -23 0 -11 3 -12 11 -4 6 6 10 16 7 23 -2
6 -7 8 -11 4z"/>
<path d="M1840 860 c0 -9 -5 -21 -12 -28 -9 -9 -9 -12 3 -12 21 0 34 12 37 36
2 13 -3 21 -13 21 -8 0 -15 -8 -15 -17z"/>
<path d="M2665 870 c-3 -5 1 -10 9 -10 9 0 16 5 16 10 0 6 -4 10 -9 10 -6 0
-13 -4 -16 -10z"/>
<path d="M1895 812 c-3 -8 -13 -11 -25 -7 -11 3 -20 2 -20 -3 0 -14 32 -12 68
4 17 8 32 16 32 17 0 9 -51 -1 -55 -11z"/>
<path d="M1368 787 c-14 -12 -39 -41 -56 -64 -16 -23 -31 -41 -33 -38 -2 2 -5
-18 -6 -43 -3 -69 -9 -111 -23 -173 -7 -31 -10 -63 -7 -70 3 -8 6 -3 6 11 1
21 4 18 21 -19 11 -24 20 -49 20 -57 0 -8 6 -14 14 -14 8 0 19 -13 25 -30 7
-20 17 -30 31 -30 11 0 24 -8 27 -17 8 -21 40 -53 46 -46 3 2 11 -5 17 -17 11
-20 13 -21 30 -5 17 15 19 15 28 -1 8 -15 11 -15 32 6 l23 23 -23 9 c-18 7
-29 3 -47 -13 -30 -29 -41 -18 -18 18 18 28 18 28 -2 10 -22 -19 -38 -23 -27
-5 4 6 3 8 -4 4 -6 -3 -19 5 -30 19 -11 14 -23 25 -27 25 -10 0 -35 27 -35 39
0 6 -6 11 -14 11 -7 0 -20 7 -27 16 -14 17 -8 17 79 -3 12 -3 22 0 22 6 0 6
-17 11 -40 11 -32 0 -40 4 -40 18 0 11 -9 29 -20 42 -11 13 -20 19 -20 14 0
-5 -4 -3 -9 5 -5 8 -7 30 -5 50 9 73 11 87 13 111 1 22 3 23 12 7 6 -9 8 -26
4 -36 -8 -26 15 -74 53 -105 19 -17 32 -37 32 -52 0 -16 9 -28 30 -39 16 -8
34 -24 40 -35 6 -11 33 -41 60 -66 28 -26 50 -53 50 -60 0 -8 5 -14 10 -14 13
0 13 13 -1 27 -9 9 -6 20 10 46 l21 34 -25 33 c-31 42 -32 54 -4 39 21 -11 22
-10 15 31 -5 35 -21 79 -44 122 -2 4 16 5 41 2 39 -6 46 -3 61 17 34 49 16
145 -43 219 -19 24 -21 25 -48 8 -15 -9 -35 -27 -43 -40 -13 -20 -11 -20 23 6
36 27 38 28 57 11 29 -26 61 -102 55 -130 -17 -84 -13 -78 -56 -72 -21 3 -42
1 -45 -4 -12 -21 -39 -9 -41 18 -1 26 0 27 13 8 8 -10 14 -14 14 -9 0 6 -11
21 -25 34 -24 22 -26 23 -38 6 -7 -10 -24 -51 -36 -90 -20 -63 -21 -76 -10
-94 15 -24 59 -30 60 -9 0 6 4 2 9 -10 5 -13 18 -23 29 -23 27 0 60 -83 41
-105 -11 -13 -19 -9 -61 37 -27 28 -49 55 -49 58 0 4 -11 12 -25 18 -14 7 -25
20 -25 31 0 10 -16 33 -35 50 -40 35 -57 71 -51 107 3 13 0 26 -5 29 -5 3 -9
16 -9 28 0 12 -1 32 -1 45 0 24 36 82 52 82 6 0 7 5 4 10 -3 6 -1 10 5 10 6 0
18 7 26 15 18 18 42 8 87 -33 15 -15 27 -20 27 -13 0 23 -61 71 -89 71 -14 0
-38 -10 -53 -23z m124 -249 c-4 -53 -22 -66 -22 -17 0 27 18 76 24 67 1 -1 1
-24 -2 -50z m53 -48 c18 -20 14 -55 -6 -48 -6 2 -17 18 -25 36 -10 26 -11 32
0 32 7 0 21 -9 31 -20z m-65 -82 c0 -5 -7 -8 -15 -8 -17 0 -34 29 -28 50 13
43 15 43 29 5 7 -22 14 -43 14 -47z m33 20 c-8 -14 -22 -8 -28 12 -10 31 5 45
20 18 6 -12 10 -26 8 -30z m62 -17 c4 -21 -9 -29 -19 -12 -6 10 4 45 11 38 2
-2 5 -14 8 -26z m-36 -5 c8 -10 9 -16 1 -21 -13 -8 -30 3 -30 21 0 18 14 18
29 0z m-229 -21 c0 -8 -5 -17 -12 -21 -6 -4 -8 -3 -4 4 3 6 2 13 -4 17 -16 10
-12 25 5 19 8 -4 15 -12 15 -19z m217 -202 c-3 -3 -11 -2 -17 2 -9 6 -9 10 1
16 14 8 27 -7 16 -18z"/>
<path d="M1810 800 c0 -5 5 -10 11 -10 5 0 7 5 4 10 -3 6 -8 10 -11 10 -2 0
-4 -4 -4 -10z"/>
<path d="M1922 783 c-6 -3 -10 -8 -7 -13 3 -5 -4 -11 -14 -15 -12 -4 -18 -12
-14 -21 3 -8 -1 -14 -10 -14 -18 0 -31 16 -20 23 5 2 2 2 -6 0 -18 -5 -51 6
-51 17 0 5 15 6 34 3 18 -3 36 -1 40 5 8 13 -64 12 -81 -1 -10 -7 -7 -14 11
-28 13 -11 31 -19 40 -19 19 0 20 -10 5 -44 -7 -14 -16 -23 -22 -19 -6 3 -7 1
-3 -5 8 -13 -17 -56 -27 -46 -3 3 -3 -4 0 -17 4 -15 8 -18 11 -10 3 8 22 38
42 67 32 45 39 51 43 34 3 -11 1 -17 -4 -14 -5 3 -8 1 -7 -5 2 -5 -6 -16 -16
-24 -17 -12 -17 -14 -2 -20 10 -4 16 -1 16 9 0 8 4 13 9 10 11 -7 21 17 21 50
0 14 7 41 15 61 17 39 16 43 -3 36z"/>
<path d="M825 705 c-34 -30 -44 -45 -32 -45 9 0 17 -4 17 -10 0 -13 -13 -13
-27 1 -8 8 -29 2 -77 -20 -36 -17 -66 -33 -66 -36 0 -4 5 -15 10 -26 15 -27
47 -24 94 11 23 17 57 41 76 53 24 15 40 37 52 70 10 26 14 47 10 47 -4 -1
-29 -21 -57 -45z m-105 -110 c-7 -9 -19 -14 -26 -11 -7 3 -15 0 -18 -7 -3 -9
-5 -8 -5 1 -1 7 9 17 22 22 33 13 41 12 27 -5z"/>
<path d="M495 720 c-3 -5 -2 -10 4 -10 5 0 13 5 16 10 3 6 2 10 -4 10 -5 0
-13 -4 -16 -10z"/>
<path d="M1411 701 c-23 -42 0 -72 39 -51 14 8 17 16 11 37 -9 34 -36 41 -50
14z m37 -27 c-4 -25 -32 -24 -36 0 -3 11 0 16 7 12 6 -4 11 0 11 10 0 13 3 15
11 7 6 -6 9 -19 7 -29z"/>
<path d="M2505 679 c-4 -6 -5 -13 -2 -16 7 -7 27 6 27 18 0 12 -17 12 -25 -2z"/>
<path d="M1721 661 c-9 -6 -7 -10 8 -14 12 -3 21 -1 21 3 0 14 -15 19 -29 11z"/>
<path d="M2255 640 c-3 -5 0 -10 9 -10 8 0 20 -16 26 -35 13 -40 30 -46 30
-12 0 44 -47 86 -65 57z"/>
<path d="M1910 581 c0 -16 6 -31 12 -33 7 -3 2 -7 -10 -10 -18 -5 -22 -2 -22
19 l0 25 -24 -23 c-24 -23 -24 -24 -5 -31 40 -15 85 4 70 29 -4 9 -6 24 -4 34
3 11 0 19 -6 19 -6 0 -11 -13 -11 -29z"/>
<path d="M1850 585 c-8 -9 -8 -15 -2 -15 12 0 26 19 19 26 -2 2 -10 -2 -17
-11z"/>
<path d="M1007 523 c-20 -21 -71 -55 -113 -78 -43 -22 -79 -45 -81 -50 -2 -6
3 -20 11 -30 14 -19 15 -19 48 -2 34 18 84 51 129 86 22 17 57 96 47 107 -2 2
-21 -13 -41 -33z m-37 -73 c0 -5 -2 -10 -4 -10 -3 0 -8 5 -11 10 -3 6 -1 10 4
10 6 0 11 -4 11 -10z m-86 -53 c-2 -7 -13 -13 -24 -14 -16 -1 -17 1 -7 12 15
18 38 19 31 2z"/>
<path d="M665 529 c-10 -15 3 -25 16 -12 7 7 7 13 1 17 -6 3 -14 1 -17 -5z"/>
<path d="M1936 522 c-2 -4 -1 -14 5 -22 7 -12 9 -10 9 8 0 23 -5 28 -14 14z"/>
<path d="M1843 509 c12 -7 15 -14 8 -22 -6 -8 -5 -17 2 -27 15 -18 57 -26 57
-10 0 7 -7 10 -15 6 -8 -3 -15 -1 -15 5 0 6 -4 7 -10 4 -14 -8 -13 8 1 22 15
15 2 33 -24 33 -20 -1 -21 -1 -4 -11z"/>
<path d="M1895 490 c-3 -5 -1 -10 4 -10 6 0 11 5 11 10 0 6 -2 10 -4 10 -3 0
-8 -4 -11 -10z"/>
<path d="M1922 470 c0 -14 2 -19 5 -12 2 6 2 18 0 25 -3 6 -5 1 -5 -13z"/>
<path d="M1181 465 c1 -11 5 -33 9 -50 l8 -30 1 35 c0 19 -4 42 -9 50 -8 12
-10 11 -9 -5z"/>
<path d="M1805 470 c-3 -5 -1 -10 5 -10 6 0 9 -4 5 -9 -3 -5 -1 -12 5 -16 6
-4 9 4 8 19 -2 27 -12 33 -23 16z"/>
<path d="M1210 421 c0 -5 5 -13 10 -16 6 -3 10 -2 10 4 0 5 -4 13 -10 16 -5 3
-10 2 -10 -4z"/>
<path d="M1875 420 c3 -5 16 -10 28 -10 18 0 19 2 7 10 -20 13 -43 13 -35 0z"/>
<path d="M1666 404 c-5 -14 -4 -15 9 -4 17 14 19 20 6 20 -5 0 -12 -7 -15 -16z"/>
<path d="M1206 375 c-3 -8 -1 -15 4 -15 6 0 10 7 10 15 0 8 -2 15 -4 15 -2 0
-6 -7 -10 -15z"/>
<path d="M1845 364 c20 -16 20 -16 -2 -9 -14 4 -23 2 -23 -4 0 -12 26 -13 53
-3 14 6 12 10 -15 19 -31 12 -32 11 -13 -3z"/>
<path d="M1630 345 c0 -8 4 -15 10 -15 5 0 7 7 4 15 -4 8 -8 15 -10 15 -2 0
-4 -7 -4 -15z"/>
<path d="M815 331 c-3 -5 2 -17 11 -26 15 -15 17 -14 29 2 7 10 11 20 8 23 -3
3 -8 -1 -10 -7 -3 -7 -9 -13 -15 -13 -6 0 -8 7 -4 15 6 16 -9 21 -19 6z"/>
<path d="M1291 305 c1 -19 18 -51 18 -35 0 8 -4 22 -9 30 -5 8 -9 11 -9 5z"/>
<path d="M1313 236 c0 -8 6 -12 14 -9 8 3 11 0 8 -9 -7 -18 39 -62 57 -55 8 4
5 8 -10 13 -18 5 -21 9 -10 16 10 7 9 8 -4 4 -13 -4 -18 0 -18 12 0 18 -18 42
-30 42 -4 0 -7 -6 -7 -14z"/>
<path d="M2205 230 c-3 -5 -1 -10 4 -10 6 0 11 5 11 10 0 6 -2 10 -4 10 -3 0
-8 -4 -11 -10z"/>
<path d="M1800 205 c-8 -9 -25 -22 -39 -30 -28 -14 -165 -40 -276 -52 -54 -6
-71 -12 -73 -25 -5 -27 36 -41 120 -40 132 2 263 35 296 75 15 18 12 79 -4 84
-6 2 -17 -4 -24 -12z m23 -31 c9 -10 -18 -44 -45 -58 -50 -26 -97 -35 -220
-41 -90 -4 -128 1 -128 17 0 5 3 7 8 4 4 -2 28 0 53 4 26 5 71 10 100 11 30 1
56 6 59 10 5 7 56 18 99 21 8 1 23 10 33 20 19 19 30 22 41 12z"/>
<path d="M980 131 c0 -6 4 -12 8 -15 5 -3 9 1 9 9 0 8 -4 15 -9 15 -4 0 -8 -4
-8 -9z"/>
<path d="M1015 120 c-3 -6 1 -7 9 -4 18 7 21 14 7 14 -6 0 -13 -4 -16 -10z"/>
<path d="M1323 3 c26 -2 68 -2 95 0 26 2 4 3 -48 3 -52 0 -74 -1 -47 -3z"/>
<path d="M1543 3 c15 -2 39 -2 55 0 15 2 2 4 -28 4 -30 0 -43 -2 -27 -4z"/>
</g>
</svg>
